<?xml version="1.0" encoding="UTF-8" standalone="no"?>
<!-- Created with Inkscape (http://www.inkscape.org/) -->

<svg
   xmlns:dc="http://purl.org/dc/elements/1.1/"
   xmlns:cc="http://creativecommons.org/ns#"
   xmlns:rdf="http://www.w3.org/1999/02/22-rdf-syntax-ns#"
   xmlns:svg="http://www.w3.org/2000/svg"
   xmlns="http://www.w3.org/2000/svg"
   xmlns:xlink="http://www.w3.org/1999/xlink"
   xmlns:sodipodi="http://sodipodi.sourceforge.net/DTD/sodipodi-0.dtd"
   xmlns:inkscape="http://www.inkscape.org/namespaces/inkscape"
   width="744.09448819"
   height="1052.3622047"
   id="svg3476"
   version="1.1"
   inkscape:version="0.48.3.1 r9886"
   sodipodi:docname="learnPAD_3.3.svg">
  <defs
     id="defs3478">
    <radialGradient
       inkscape:collect="always"
       xlink:href="#path436-9-2-4_2_"
       id="radialGradient3405"
       gradientUnits="userSpaceOnUse"
       cx="250.4529"
       cy="313.03149"
       fx="244.94299"
       fy="305.43921"
       r="19.5347" />
    <radialGradient
       gradientUnits="userSpaceOnUse"
       fy="305.43921"
       fx="244.94299"
       r="19.5347"
       cy="313.03149"
       cx="250.4529"
       id="path436-9-2-4_2_">
      <stop
         id="stop61"
         style="stop-color:#27AAE1"
         offset="0" />
      <stop
         id="stop63"
         style="stop-color:#1C75BC"
         offset="1" />
    </radialGradient>
    <radialGradient
       inkscape:collect="always"
       xlink:href="#path438-3-8-7_2_"
       id="radialGradient3407"
       gradientUnits="userSpaceOnUse"
       cx="297.90161"
       cy="313.03149"
       fx="292.25531"
       fy="305.12161"
       r="19.533899" />
    <radialGradient
       gradientUnits="userSpaceOnUse"
       fy="305.12161"
       fx="292.25531"
       r="19.533899"
       cy="313.03149"
       cx="297.90161"
       id="path438-3-8-7_2_">
      <stop
         id="stop67"
         style="stop-color:#27AAE1"
         offset="0" />
      <stop
         id="stop69"
         style="stop-color:#1C75BC"
         offset="1" />
    </radialGradient>
    <radialGradient
       inkscape:collect="always"
       xlink:href="#path440-2-2-6_2_"
       id="radialGradient3409"
       gradientUnits="userSpaceOnUse"
       cx="345.3504"
       cy="313.03149"
       fx="339.172"
       fy="305.9241"
       r="19.533701" />
    <radialGradient
       gradientUnits="userSpaceOnUse"
       fy="305.9241"
       fx="339.172"
       r="19.533701"
       cy="313.03149"
       cx="345.3504"
       id="path440-2-2-6_2_">
      <stop
         id="stop73"
         style="stop-color:#27AAE1"
         offset="0" />
      <stop
         id="stop75"
         style="stop-color:#1C75BC"
         offset="1" />
    </radialGradient>
    <radialGradient
       inkscape:collect="always"
       xlink:href="#path442-7-7-8_2_"
       id="radialGradient3411"
       gradientUnits="userSpaceOnUse"
       cx="392.79761"
       cy="313.03149"
       fx="386.80569"
       fy="305.9527"
       r="19.5347" />
    <radialGradient
       gradientUnits="userSpaceOnUse"
       fy="305.9527"
       fx="386.80569"
       r="19.5347"
       cy="313.03149"
       cx="392.79761"
       id="path442-7-7-8_2_">
      <stop
         id="stop79"
         style="stop-color:#27AAE1"
         offset="0" />
      <stop
         id="stop81"
         style="stop-color:#1C75BC"
         offset="1" />
    </radialGradient>
    <radialGradient
       inkscape:collect="always"
       xlink:href="#path436-9-2_2_"
       id="radialGradient3413"
       gradientUnits="userSpaceOnUse"
       cx="250.4529"
       cy="305.93381"
       fx="245.1219"
       fy="297.66861"
       r="19.5352" />
    <radialGradient
       gradientUnits="userSpaceOnUse"
       fy="297.66861"
       fx="245.1219"
       r="19.5352"
       cy="305.93381"
       cx="250.4529"
       id="path436-9-2_2_">
      <stop
         id="stop86"
         style="stop-color:#FFF200"
         offset="0" />
      <stop
         id="stop88"
         style="stop-color:#FBB040"
         offset="1" />
    </radialGradient>
    <radialGradient
       inkscape:collect="always"
       xlink:href="#path438-3-8_2_"
       id="radialGradient3415"
       gradientUnits="userSpaceOnUse"
       cx="297.90161"
       cy="305.93381"
       fx="292.5556"
       fy="298.26859"
       r="19.534401" />
    <radialGradient
       gradientUnits="userSpaceOnUse"
       fy="298.26859"
       fx="292.5556"
       r="19.534401"
       cy="305.93381"
       cx="297.90161"
       id="path438-3-8_2_">
      <stop
         id="stop92"
         style="stop-color:#FFF200"
         offset="0" />
      <stop
         id="stop94"
         style="stop-color:#FBB040"
         offset="1" />
    </radialGradient>
    <radialGradient
       inkscape:collect="always"
       xlink:href="#path440-2-2_2_"
       id="radialGradient3417"
       gradientUnits="userSpaceOnUse"
       cx="345.3504"
       cy="305.93381"
       fx="340.76431"
       fy="298.68439"
       r="19.534201" />
    <radialGradient
       gradientUnits="userSpaceOnUse"
       fy="298.68439"
       fx="340.76431"
       r="19.534201"
       cy="305.93381"
       cx="345.3504"
       id="path440-2-2_2_">
      <stop
         id="stop98"
         style="stop-color:#FFF200"
         offset="0" />
      <stop
         id="stop100"
         style="stop-color:#FBB040"
         offset="1" />
    </radialGradient>
    <radialGradient
       inkscape:collect="always"
       xlink:href="#path442-7-7_2_"
       id="radialGradient3419"
       gradientUnits="userSpaceOnUse"
       cx="392.79761"
       cy="305.93381"
       fx="386.664"
       fy="297.85571"
       r="19.5352" />
    <radialGradient
       gradientUnits="userSpaceOnUse"
       fy="297.85571"
       fx="386.664"
       r="19.5352"
       cy="305.93381"
       cx="392.79761"
       id="path442-7-7_2_">
      <stop
         id="stop104"
         style="stop-color:#FFF200"
         offset="0" />
      <stop
         id="stop106"
         style="stop-color:#FBB040"
         offset="1" />
    </radialGradient>
    <radialGradient
       inkscape:collect="always"
       xlink:href="#path436-9_2_"
       id="radialGradient3421"
       gradientUnits="userSpaceOnUse"
       cx="250.4529"
       cy="298.8418"
       fx="245.2674"
       fy="291.66519"
       r="19.5347" />
    <radialGradient
       gradientUnits="userSpaceOnUse"
       fy="291.66519"
       fx="245.2674"
       r="19.5347"
       cy="298.8418"
       cx="250.4529"
       id="path436-9_2_">
      <stop
         id="stop111"
         style="stop-color:#8DC63F"
         offset="0" />
      <stop
         id="stop113"
         style="stop-color:#009444"
         offset="1" />
    </radialGradient>
    <radialGradient
       inkscape:collect="always"
       xlink:href="#path438-3_2_"
       id="radialGradient3423"
       gradientUnits="userSpaceOnUse"
       cx="297.90161"
       cy="298.8418"
       fx="292.26239"
       fy="291.00281"
       r="19.533899" />
    <radialGradient
       gradientUnits="userSpaceOnUse"
       fy="291.00281"
       fx="292.26239"
       r="19.533899"
       cy="298.8418"
       cx="297.90161"
       id="path438-3_2_">
      <stop
         id="stop117"
         style="stop-color:#8DC63F"
         offset="0" />
      <stop
         id="stop119"
         style="stop-color:#009444"
         offset="1" />
    </radialGradient>
    <radialGradient
       inkscape:collect="always"
       xlink:href="#path440-2_2_"
       id="radialGradient3425"
       gradientUnits="userSpaceOnUse"
       cx="345.3504"
       cy="298.8418"
       fx="339.05429"
       fy="290.9079"
       r="19.533701" />
    <radialGradient
       gradientUnits="userSpaceOnUse"
       fy="290.9079"
       fx="339.05429"
       r="19.533701"
       cy="298.8418"
       cx="345.3504"
       id="path440-2_2_">
      <stop
         id="stop123"
         style="stop-color:#8DC63F"
         offset="0" />
      <stop
         id="stop125"
         style="stop-color:#009444"
         offset="1" />
    </radialGradient>
    <radialGradient
       inkscape:collect="always"
       xlink:href="#path442-7_2_"
       id="radialGradient3427"
       gradientUnits="userSpaceOnUse"
       cx="392.79761"
       cy="298.8418"
       fx="387.3717"
       fy="291.9202"
       r="19.5347" />
    <radialGradient
       gradientUnits="userSpaceOnUse"
       fy="291.9202"
       fx="387.3717"
       r="19.5347"
       cy="298.8418"
       cx="392.79761"
       id="path442-7_2_">
      <stop
         id="stop129"
         style="stop-color:#8DC63F"
         offset="0" />
      <stop
         id="stop131"
         style="stop-color:#009444"
         offset="1" />
    </radialGradient>
    <radialGradient
       inkscape:collect="always"
       xlink:href="#path436_2_"
       id="radialGradient3429"
       gradientUnits="userSpaceOnUse"
       cx="250.4529"
       cy="291.64401"
       fx="245.2263"
       fy="284.1749"
       r="19.534401" />
    <radialGradient
       gradientUnits="userSpaceOnUse"
       fy="284.1749"
       fx="245.2263"
       r="19.534401"
       cy="291.64401"
       cx="250.4529"
       id="path436_2_">
      <stop
         id="stop136"
         style="stop-color:#FBB040"
         offset="0" />
      <stop
         id="stop138"
         style="stop-color:#ED1C24"
         offset="1" />
    </radialGradient>
    <radialGradient
       inkscape:collect="always"
       xlink:href="#path438_2_"
       id="radialGradient3431"
       gradientUnits="userSpaceOnUse"
       cx="297.90161"
       cy="291.64401"
       fx="292.77301"
       fy="283.5892"
       r="19.533701" />
    <radialGradient
       gradientUnits="userSpaceOnUse"
       fy="283.5892"
       fx="292.77301"
       r="19.533701"
       cy="291.64401"
       cx="297.90161"
       id="path438_2_">
      <stop
         id="stop142"
         style="stop-color:#FBB040"
         offset="0" />
      <stop
         id="stop144"
         style="stop-color:#ED1C24"
         offset="1" />
    </radialGradient>
    <radialGradient
       inkscape:collect="always"
       xlink:href="#path440_2_"
       id="radialGradient3433"
       gradientUnits="userSpaceOnUse"
       cx="345.3504"
       cy="291.64401"
       fx="339.85291"
       fy="283.53629"
       r="19.5334" />
    <radialGradient
       gradientUnits="userSpaceOnUse"
       fy="283.53629"
       fx="339.85291"
       r="19.5334"
       cy="291.64401"
       cx="345.3504"
       id="path440_2_">
      <stop
         id="stop148"
         style="stop-color:#FBB040"
         offset="0" />
      <stop
         id="stop150"
         style="stop-color:#ED1C24"
         offset="1" />
    </radialGradient>
    <radialGradient
       inkscape:collect="always"
       xlink:href="#path442_2_"
       id="radialGradient3435"
       gradientUnits="userSpaceOnUse"
       cx="392.79761"
       cy="291.64401"
       fx="386.85849"
       fy="284.93909"
       r="19.534401" />
    <radialGradient
       gradientUnits="userSpaceOnUse"
       fy="284.93909"
       fx="386.85849"
       r="19.534401"
       cy="291.64401"
       cx="392.79761"
       id="path442_2_">
      <stop
         id="stop154"
         style="stop-color:#FBB040"
         offset="0" />
      <stop
         id="stop156"
         style="stop-color:#ED1C24"
         offset="1" />
    </radialGradient>
  </defs>
  <sodipodi:namedview
     id="base"
     pagecolor="#ffffff"
     bordercolor="#666666"
     borderopacity="1.0"
     inkscape:pageopacity="0.0"
     inkscape:pageshadow="2"
     inkscape:zoom="0.35"
     inkscape:cx="375"
     inkscape:cy="837.82056"
     inkscape:document-units="px"
     inkscape:current-layer="layer1"
     showgrid="false"
     inkscape:window-width="1280"
     inkscape:window-height="1004"
     inkscape:window-x="-2"
     inkscape:window-y="-3"
     inkscape:window-maximized="1" />
  <metadata
     id="metadata3481">
    <rdf:RDF>
      <cc:Work
         rdf:about="">
        <dc:format>image/svg+xml</dc:format>
        <dc:type
           rdf:resource="http://purl.org/dc/dcmitype/StillImage" />
        <dc:title />
      </cc:Work>
    </rdf:RDF>
  </metadata>
  <g
     inkscape:label="Livello 1"
     inkscape:groupmode="layer"
     id="layer1">
    <g
       style="display:inline"
       id="g3305"
       transform="matrix(1.7789428,0,0,2.0547069,-95.570116,-300.62688)"
       inkscape:export-filename="/home/gulyx/Documenti/Dottorato/LearnPAd/WP9/Templates/LearnPAd_LaTeX_Template/logos/frontpage5.png"
       inkscape:export-xdpi="333"
       inkscape:export-ydpi="333">
      <g
         inkscape:export-ydpi="333.36765"
         inkscape:export-xdpi="333.36765"
         inkscape:export-filename="/home/gulyx/Documenti/Dottorato/LearnPAd/WP9/Templates/LearnPAd_LaTeX_Template/logos/frontpage2.png"
         transform="matrix(0.40504251,0,0,0.40504251,8.6225933,143.44946)"
         id="g3275">
        <g
           transform="matrix(0.9678393,-0.25156924,0.25156924,0.9678393,-85.605554,87.082353)"
           id="g3394">
          <rect
             style="fill:#6d6e71;fill-opacity:1"
             id="rect7"
             height="2"
             width="217.882"
             y="345.965"
             x="210.69901" />
          <path
             style="fill:#6d6e71;fill-opacity:1"
             inkscape:connector-curvature="0"
             id="path9"
             d="m 170.311,351.355 c -4.419,6.996 -9.426,14.923 -12.873,14.923 -0.007,0 -0.015,0 -0.022,0 -0.25,-0.002 -0.364,-0.085 -0.467,-0.218 -1.537,-1.978 0.826,-11.655 2.724,-19.431 2.917,-11.948 4.53,-19.396 2.341,-22.081 -0.562,-0.69 -1.359,-1.037 -2.291,-1.002 -5.303,0.195 -10.66,8.704 -16.332,17.712 -3.898,6.192 -7.929,12.595 -11.2,14.579 l 1.037,1.71 c 3.675,-2.229 7.648,-8.541 11.855,-15.224 4.905,-7.791 10.465,-16.622 14.712,-16.778 0.373,-0.013 0.547,0.12 0.667,0.267 1.718,2.107 -0.75,12.218 -2.734,20.342 -2.793,11.443 -4.346,18.576 -2.36,21.132 0.497,0.64 1.198,0.982 2.026,0.991 0.014,0 0.027,0 0.041,0 4.551,0 9.416,-7.702 14.566,-15.854 0.621,-0.983 1.255,-1.985 1.893,-2.979 v -3.665 c -1.155,1.732 -2.348,3.619 -3.583,5.576 z" />
          <rect
             style="fill:#6d6e71;fill-opacity:1"
             id="rect11"
             height="2"
             width="217.882"
             y="400.77301"
             x="210.69901" />
          <path
             style="fill:#6d6e71;fill-opacity:1"
             inkscape:connector-curvature="0"
             id="path13"
             d="m 168.588,406.163 c -4.429,7.01 -9.493,14.972 -12.896,14.922 -0.25,-0.003 -0.364,-0.085 -0.467,-0.218 -1.537,-1.978 0.826,-11.654 2.724,-19.43 2.917,-11.948 4.53,-19.396 2.341,-22.08 -0.563,-0.69 -1.352,-1.038 -2.291,-1.002 -5.304,0.195 -10.66,8.704 -16.332,17.712 -3.898,6.192 -7.929,12.594 -11.2,14.58 l 1.037,1.709 c 3.675,-2.229 7.648,-8.541 11.855,-15.223 4.905,-7.792 10.465,-16.623 14.712,-16.779 0.379,-0.019 0.547,0.12 0.667,0.267 1.718,2.106 -0.75,12.218 -2.734,20.342 -2.793,11.444 -4.346,18.577 -2.36,21.132 0.497,0.64 1.198,0.981 2.026,0.99 0.014,0 0.027,0 0.041,0 4.551,0 9.416,-7.702 14.566,-15.854 1.179,-1.866 2.403,-3.801 3.616,-5.61 v -3.523 c -1.682,2.331 -3.445,5.12 -5.305,8.065 z" />
          <path
             style="fill:#6d6e71;fill-opacity:1"
             inkscape:connector-curvature="0"
             id="path15"
             d="M 428.581,535.013 H 210.699 v -77.432 h -8.106 c -8.182,0.091 -9.871,4.118 -11.654,8.383 -1.228,2.938 -2.498,5.976 -5.893,7.526 -1.176,0.408 -1.888,0.081 -2.294,-0.259 -1.625,-1.362 -1.124,-5.141 -0.099,-11.699 0.737,-4.714 1.747,-11.169 0.367,-12.75 -0.129,-0.148 -0.315,-0.287 -0.722,-0.291 -2.117,0.04 -5.258,4.232 -8.404,9.027 v 106.51 c 0,4.301 3.487,7.791 7.792,7.791 h 275.907 c 4.303,0 7.792,-3.49 7.792,-7.791 V 192.684 c 0,-4.302 -3.489,-7.792 -7.792,-7.792 H 181.687 c -4.305,0 -7.792,3.489 -7.792,7.792 v 95.421 c 2.629,-3.579 5.063,-5.994 7.366,-6.038 0.895,-0.007 1.695,0.32 2.268,0.976 1.992,2.284 1.074,8.156 0.102,14.374 -0.537,3.431 -1.434,9.171 -0.595,9.855 0,-0.005 0.086,0.002 0.271,-0.062 2.592,-1.189 3.609,-3.624 4.788,-6.442 1.782,-4.263 3.805,-9.058 12.283,-9.563 v -0.049 h 1.208 c 0.034,0 0.063,-0.004 0.096,-0.004 v 0.004 h 9.018 v -69.458 h 217.882 v 124.266" />
          <polyline
             style="fill:#009444"
             id="polyline17"
             points="428.581,347.965 428.581,400.773 428.624,400.773 428.624,402.773 428.581,402.773   " />
          <path
             style="fill:#6d6e71;fill-opacity:1"
             inkscape:connector-curvature="0"
             id="path19"
             d="m 182.26,446.491 c 0.898,-0.005 1.695,0.319 2.268,0.976 1.992,2.284 1.074,8.157 0.102,14.374 -0.537,3.432 -1.434,9.173 -0.595,9.855 0,-0.005 0.086,0.003 0.271,-0.062 2.592,-1.189 3.609,-3.623 4.788,-6.441 1.782,-4.264 3.805,-9.058 12.283,-9.563 v -0.049 h 1.208 c 0.034,0 0.063,-0.004 0.096,-0.004 v 0.004 h 8.018 v -52.808 h -8.829 c -8.182,0.091 -9.871,4.118 -11.654,8.383 -1.228,2.937 -2.498,5.975 -5.893,7.525 -1.176,0.408 -1.888,0.082 -2.294,-0.259 -1.625,-1.362 -1.124,-5.14 -0.099,-11.699 0.737,-4.713 1.747,-11.168 0.367,-12.75 -0.129,-0.148 -0.304,-0.315 -0.722,-0.291 -1.955,0.037 -4.783,3.615 -7.681,7.938 v 52.308 c 3.016,-4.34 5.775,-7.388 8.366,-7.437 z" />
          <path
             style="fill:#6d6e71;fill-opacity:1"
             inkscape:connector-curvature="0"
             id="path21"
             d="m 183.26,336.875 c 0.902,-0.026 1.695,0.32 2.268,0.976 1.992,2.284 1.074,8.156 0.102,14.374 -0.537,3.431 -1.434,9.172 -0.595,9.855 0,-0.005 0.086,0.002 0.271,-0.062 2.592,-1.189 3.609,-3.624 4.788,-6.442 1.782,-4.263 3.805,-9.058 12.283,-9.563 v -0.049 h 1.208 c 0.034,0 0.063,-0.003 0.096,-0.004 v 0.004 h 7.018 v -52.808 h -9.106 c -8.182,0.091 -9.871,4.118 -11.654,8.383 -1.228,2.938 -2.498,5.975 -5.893,7.526 -1.175,0.408 -1.888,0.082 -2.294,-0.259 -1.625,-1.363 -1.124,-5.14 -0.099,-11.699 0.737,-4.713 1.747,-11.168 0.367,-12.75 -0.129,-0.148 -0.304,-0.315 -0.722,-0.291 -1.892,0.036 -4.603,3.389 -7.404,7.524 v 54.188 c 3.41,-5.108 6.491,-8.847 9.366,-8.903 z" />
          <path
             style="fill:#6d6e71;fill-opacity:1"
             inkscape:connector-curvature="0"
             id="path23"
             d="m 181.538,391.683 c 0.893,-0.025 1.695,0.32 2.268,0.976 1.992,2.284 1.074,8.156 0.102,14.374 -0.537,3.431 -1.434,9.172 -0.595,9.855 0,-0.005 0.086,0.003 0.271,-0.062 2.592,-1.189 3.609,-3.623 4.788,-6.441 1.782,-4.264 3.805,-9.058 12.283,-9.563 v -0.049 h 1.208 c 0.034,0 0.063,-0.003 0.096,-0.004 v 0.004 h 8.741 v -52.808 h -7.106 c -8.182,0.091 -9.871,4.118 -11.654,8.383 -1.228,2.938 -2.498,5.975 -5.893,7.526 -1.176,0.408 -1.888,0.081 -2.294,-0.259 -1.625,-1.363 -1.124,-5.14 -0.099,-11.699 0.737,-4.714 1.747,-11.169 0.367,-12.75 -0.129,-0.148 -0.306,-0.306 -0.722,-0.291 -2.342,0.044 -5.936,5.167 -9.404,10.569 v 48.653 c 2.735,-3.789 5.259,-6.368 7.643,-6.414 z" />
          <rect
             style="fill:#6d6e71;fill-opacity:1"
             id="rect25"
             height="2"
             width="217.647"
             y="291.15701"
             x="210.69901" />
          <path
             style="fill:#6d6e71;fill-opacity:1"
             inkscape:connector-curvature="0"
             id="path27"
             d="m 168.311,296.547 c -4.429,7.011 -9.445,14.978 -12.896,14.922 -0.25,-0.002 -0.364,-0.085 -0.467,-0.218 -1.537,-1.978 0.826,-11.654 2.724,-19.43 2.917,-11.948 4.53,-19.396 2.341,-22.08 -0.563,-0.69 -1.357,-1.036 -2.291,-1.002 -5.303,0.195 -10.66,8.704 -16.332,17.712 -3.898,6.192 -7.929,12.595 -11.2,14.579 l 1.037,1.71 c 3.675,-2.229 7.648,-8.541 11.855,-15.224 4.905,-7.791 10.465,-16.622 14.712,-16.778 0.378,-0.021 0.547,0.12 0.667,0.267 1.718,2.106 -0.75,12.218 -2.734,20.342 -2.793,11.443 -4.346,18.576 -2.36,21.132 0.497,0.64 1.198,0.982 2.026,0.991 0.014,0 0.027,0 0.041,0 4.551,0 9.416,-7.702 14.566,-15.854 1.269,-2.008 2.59,-4.1 3.893,-6.023 v -3.487 c -1.766,2.406 -3.62,5.333 -5.582,8.441 z" />
          <rect
             style="fill:#6d6e71;fill-opacity:1"
             id="rect29"
             height="2"
             width="217.882"
             y="455.58099"
             x="210.69901" />
          <path
             style="fill:#6d6e71;fill-opacity:1"
             inkscape:connector-curvature="0"
             id="path31"
             d="m 169.311,460.971 c -4.419,6.996 -9.426,14.923 -12.873,14.923 -0.007,0 -0.015,0 -0.022,0 -0.25,-0.003 -0.364,-0.085 -0.467,-0.218 -1.537,-1.978 0.826,-11.654 2.724,-19.431 2.917,-11.947 4.53,-19.396 2.341,-22.08 -0.563,-0.69 -1.358,-1.04 -2.291,-1.002 -5.303,0.195 -10.66,8.703 -16.332,17.711 -3.898,6.192 -7.929,12.595 -11.2,14.58 l 1.037,1.709 c 3.675,-2.229 7.648,-8.541 11.855,-15.223 4.905,-7.792 10.465,-16.623 14.712,-16.779 0.375,-0.009 0.547,0.121 0.667,0.268 1.718,2.106 -0.75,12.218 -2.734,20.342 -2.793,11.444 -4.346,18.577 -2.36,21.133 0.497,0.64 1.198,0.981 2.026,0.99 0.014,0 0.027,0 0.041,0 4.551,0 9.416,-7.702 14.566,-15.854 0.945,-1.495 1.919,-3.036 2.893,-4.521 v -3.59 c -1.464,2.107 -2.987,4.515 -4.583,7.042 z" />
          <circle
             cx="319.64001"
             cy="553.71399"
             r="11.042"
             id="circle33"
             sodipodi:cx="319.64001"
             sodipodi:cy="553.71399"
             sodipodi:rx="11.042"
             sodipodi:ry="11.042"
             style="fill:none;stroke:#ffffff;stroke-width:0.75"
             d="m 330.68201,553.71399 c 0,6.09833 -4.94367,11.042 -11.042,11.042 -6.09832,0 -11.042,-4.94367 -11.042,-11.042 0,-6.09833 4.94368,-11.042 11.042,-11.042 6.09833,0 11.042,4.94367 11.042,11.042 z" />
          <rect
             x="315.95999"
             y="550.03003"
             width="7.3600001"
             height="7.3629999"
             id="rect35"
             style="fill:#ffffff;stroke:#6d6e71;stroke-width:0.75" />
          <path
             d="m 322.4,200.516 c 0,1.524 -1.236,2.76 -2.758,2.76 -1.525,0 -2.763,-1.235 -2.763,-2.76 0,-1.526 1.237,-2.762 2.763,-2.762 1.522,0 2.758,1.236 2.758,2.762 z"
             id="path37"
             inkscape:connector-curvature="0"
             style="fill:#ffffff" />
          <g
             id="g57">
            <g
               id="g3799-5-7-1_1_"
               transform="translate(-1.985125,144.03591)">
              <radialGradient
                 id="radialGradient4023"
                 cx="250.4529"
                 cy="313.03149"
                 r="19.5347"
                 fx="244.94299"
                 fy="305.43921"
                 gradientUnits="userSpaceOnUse">
                <stop
                   offset="0"
                   style="stop-color:#27AAE1"
                   id="stop4025" />
                <stop
                   offset="1"
                   style="stop-color:#1C75BC"
                   id="stop4027" />
              </radialGradient>
              <path
                 id="path436-9-2-4_1_"
                 connector-curvature="0"
                 d="m 269.989,313.027 c 0,10.794 -8.749,19.538 -19.535,19.538 -10.792,0 -19.537,-8.744 -19.537,-19.538 0,-10.791 8.745,-19.528 19.537,-19.528 10.786,-0.001 19.535,8.737 19.535,19.528 z"
                 style="fill:url(#radialGradient3405)"
                 inkscape:connector-curvature="0" />
              <radialGradient
                 id="radialGradient4030"
                 cx="297.90161"
                 cy="313.03149"
                 r="19.533899"
                 fx="292.25531"
                 fy="305.12161"
                 gradientUnits="userSpaceOnUse">
                <stop
                   offset="0"
                   style="stop-color:#27AAE1"
                   id="stop4032" />
                <stop
                   offset="1"
                   style="stop-color:#1C75BC"
                   id="stop4034" />
              </radialGradient>
              <path
                 id="path438-3-8-7_1_"
                 connector-curvature="0"
                 d="m 317.436,313.027 c 0,10.794 -8.746,19.538 -19.534,19.538 -10.789,0 -19.535,-8.744 -19.535,-19.538 0,-10.791 8.746,-19.528 19.535,-19.528 10.788,-0.001 19.534,8.737 19.534,19.528 z"
                 style="fill:url(#radialGradient3407)"
                 inkscape:connector-curvature="0" />
              <radialGradient
                 id="radialGradient4037"
                 cx="345.3504"
                 cy="313.03149"
                 r="19.533701"
                 fx="339.172"
                 fy="305.9241"
                 gradientUnits="userSpaceOnUse">
                <stop
                   offset="0"
                   style="stop-color:#27AAE1"
                   id="stop4039" />
                <stop
                   offset="1"
                   style="stop-color:#1C75BC"
                   id="stop4041" />
              </radialGradient>
              <path
                 id="path440-2-2-6_1_"
                 connector-curvature="0"
                 d="m 364.885,313.027 c 0,10.794 -8.741,19.538 -19.531,19.538 -10.789,0 -19.537,-8.744 -19.537,-19.538 0,-10.791 8.748,-19.528 19.537,-19.528 10.789,-0.001 19.531,8.737 19.531,19.528 z"
                 style="fill:url(#radialGradient3409)"
                 inkscape:connector-curvature="0" />
              <radialGradient
                 id="radialGradient4044"
                 cx="392.79761"
                 cy="313.03149"
                 r="19.5347"
                 fx="386.80569"
                 fy="305.9527"
                 gradientUnits="userSpaceOnUse">
                <stop
                   offset="0"
                   style="stop-color:#27AAE1"
                   id="stop4046" />
                <stop
                   offset="1"
                   style="stop-color:#1C75BC"
                   id="stop4048" />
              </radialGradient>
              <path
                 id="path442-7-7-8_1_"
                 connector-curvature="0"
                 d="m 412.334,313.027 c 0,10.794 -8.742,19.538 -19.531,19.538 -10.792,0 -19.54,-8.744 -19.54,-19.538 0,-10.791 8.748,-19.528 19.54,-19.528 10.789,-0.001 19.531,8.737 19.531,19.528 z"
                 style="fill:url(#radialGradient3411)"
                 inkscape:connector-curvature="0" />
            </g>
            <g
               id="g3799-5-7_1_"
               transform="translate(-1.985125,96.242915)">
              <radialGradient
                 id="radialGradient4052"
                 cx="250.4529"
                 cy="305.93381"
                 r="19.5352"
                 fx="245.1219"
                 fy="297.66861"
                 gradientUnits="userSpaceOnUse">
                <stop
                   offset="0"
                   style="stop-color:#FFF200"
                   id="stop4054" />
                <stop
                   offset="1"
                   style="stop-color:#FBB040"
                   id="stop4056" />
              </radialGradient>
              <path
                 id="path436-9-2_1_"
                 connector-curvature="0"
                 d="m 269.989,305.931 c 0,10.794 -8.749,19.537 -19.535,19.537 -10.792,0 -19.537,-8.743 -19.537,-19.537 0,-10.792 8.745,-19.531 19.537,-19.531 10.786,0 19.535,8.739 19.535,19.531 z"
                 style="fill:url(#radialGradient3413)"
                 inkscape:connector-curvature="0" />
              <radialGradient
                 id="radialGradient4059"
                 cx="297.90161"
                 cy="305.93381"
                 r="19.534401"
                 fx="292.5556"
                 fy="298.26859"
                 gradientUnits="userSpaceOnUse">
                <stop
                   offset="0"
                   style="stop-color:#FFF200"
                   id="stop4061" />
                <stop
                   offset="1"
                   style="stop-color:#FBB040"
                   id="stop4063" />
              </radialGradient>
              <path
                 id="path438-3-8_1_"
                 connector-curvature="0"
                 d="m 317.436,305.931 c 0,10.794 -8.746,19.537 -19.534,19.537 -10.789,0 -19.535,-8.743 -19.535,-19.537 0,-10.792 8.746,-19.531 19.535,-19.531 10.788,0 19.534,8.739 19.534,19.531 z"
                 style="fill:url(#radialGradient3415)"
                 inkscape:connector-curvature="0" />
              <radialGradient
                 id="radialGradient4066"
                 cx="345.3504"
                 cy="305.93381"
                 r="19.534201"
                 fx="340.76431"
                 fy="298.68439"
                 gradientUnits="userSpaceOnUse">
                <stop
                   offset="0"
                   style="stop-color:#FFF200"
                   id="stop4068" />
                <stop
                   offset="1"
                   style="stop-color:#FBB040"
                   id="stop4070" />
              </radialGradient>
              <path
                 id="path440-2-2_1_"
                 connector-curvature="0"
                 d="m 364.885,305.931 c 0,10.794 -8.741,19.537 -19.531,19.537 -10.789,0 -19.537,-8.743 -19.537,-19.537 0,-10.792 8.748,-19.531 19.537,-19.531 10.789,0 19.531,8.739 19.531,19.531 z"
                 style="fill:url(#radialGradient3417)"
                 inkscape:connector-curvature="0" />
              <radialGradient
                 id="radialGradient4073"
                 cx="392.79761"
                 cy="305.93381"
                 r="19.5352"
                 fx="386.664"
                 fy="297.85571"
                 gradientUnits="userSpaceOnUse">
                <stop
                   offset="0"
                   style="stop-color:#FFF200"
                   id="stop4075" />
                <stop
                   offset="1"
                   style="stop-color:#FBB040"
                   id="stop4077" />
              </radialGradient>
              <path
                 id="path442-7-7_1_"
                 connector-curvature="0"
                 d="m 412.334,305.931 c 0,10.794 -8.742,19.537 -19.531,19.537 -10.792,0 -19.54,-8.743 -19.54,-19.537 0,-10.792 8.748,-19.531 19.54,-19.531 10.789,0 19.531,8.739 19.531,19.531 z"
                 style="fill:url(#radialGradient3419)"
                 inkscape:connector-curvature="0" />
            </g>
            <g
               id="g3799-5_1_"
               transform="translate(-1.985125,48.480512)">
              <radialGradient
                 id="radialGradient4081"
                 cx="250.4529"
                 cy="298.8418"
                 r="19.5347"
                 fx="245.2674"
                 fy="291.66519"
                 gradientUnits="userSpaceOnUse">
                <stop
                   offset="0"
                   style="stop-color:#8DC63F"
                   id="stop4083" />
                <stop
                   offset="1"
                   style="stop-color:#009444"
                   id="stop4085" />
              </radialGradient>
              <path
                 id="path436-9_1_"
                 connector-curvature="0"
                 d="m 269.989,298.84 c 0,10.791 -8.749,19.535 -19.535,19.535 -10.792,0 -19.537,-8.741 -19.537,-19.535 0,-10.792 8.745,-19.531 19.537,-19.531 10.786,0 19.535,8.739 19.535,19.531 z"
                 style="fill:url(#radialGradient3421)"
                 inkscape:connector-curvature="0" />
              <radialGradient
                 id="radialGradient4088"
                 cx="297.90161"
                 cy="298.8418"
                 r="19.533899"
                 fx="292.26239"
                 fy="291.00281"
                 gradientUnits="userSpaceOnUse">
                <stop
                   offset="0"
                   style="stop-color:#8DC63F"
                   id="stop4090" />
                <stop
                   offset="1"
                   style="stop-color:#009444"
                   id="stop4092" />
              </radialGradient>
              <path
                 id="path438-3_1_"
                 connector-curvature="0"
                 d="m 317.436,298.84 c 0,10.791 -8.746,19.535 -19.534,19.535 -10.789,0 -19.535,-8.741 -19.535,-19.535 0,-10.792 8.746,-19.531 19.535,-19.531 10.788,0 19.534,8.739 19.534,19.531 z"
                 style="fill:url(#radialGradient3423)"
                 inkscape:connector-curvature="0" />
              <radialGradient
                 id="radialGradient4095"
                 cx="345.3504"
                 cy="298.8418"
                 r="19.533701"
                 fx="339.05429"
                 fy="290.9079"
                 gradientUnits="userSpaceOnUse">
                <stop
                   offset="0"
                   style="stop-color:#8DC63F"
                   id="stop4097" />
                <stop
                   offset="1"
                   style="stop-color:#009444"
                   id="stop4099" />
              </radialGradient>
              <path
                 id="path440-2_1_"
                 connector-curvature="0"
                 d="m 364.885,298.84 c 0,10.791 -8.741,19.535 -19.531,19.535 -10.789,0 -19.537,-8.741 -19.537,-19.535 0,-10.792 8.748,-19.531 19.537,-19.531 10.789,0 19.531,8.739 19.531,19.531 z"
                 style="fill:url(#radialGradient3425)"
                 inkscape:connector-curvature="0" />
              <radialGradient
                 id="radialGradient4102"
                 cx="392.79761"
                 cy="298.8418"
                 r="19.5347"
                 fx="387.3717"
                 fy="291.9202"
                 gradientUnits="userSpaceOnUse">
                <stop
                   offset="0"
                   style="stop-color:#8DC63F"
                   id="stop4104" />
                <stop
                   offset="1"
                   style="stop-color:#009444"
                   id="stop4106" />
              </radialGradient>
              <path
                 id="path442-7_1_"
                 connector-curvature="0"
                 d="m 412.334,298.84 c 0,10.791 -8.742,19.535 -19.531,19.535 -10.792,0 -19.54,-8.741 -19.54,-19.535 0,-10.792 8.748,-19.531 19.54,-19.531 10.789,0 19.531,8.739 19.531,19.531 z"
                 style="fill:url(#radialGradient3427)"
                 inkscape:connector-curvature="0" />
            </g>
            <g
               id="g3799_1_"
               transform="translate(-1.985125,0)">
              <radialGradient
                 id="radialGradient4110"
                 cx="250.4529"
                 cy="291.64401"
                 r="19.534401"
                 fx="245.2263"
                 fy="284.1749"
                 gradientUnits="userSpaceOnUse">
                <stop
                   offset="0"
                   style="stop-color:#FBB040"
                   id="stop4112" />
                <stop
                   offset="1"
                   style="stop-color:#ED1C24"
                   id="stop4114" />
              </radialGradient>
              <path
                 id="path436_1_"
                 connector-curvature="0"
                 d="m 269.989,291.641 c 0,10.793 -8.749,19.536 -19.535,19.536 -10.792,0 -19.537,-8.741 -19.537,-19.536 0,-10.791 8.745,-19.529 19.537,-19.529 10.786,-0.001 19.535,8.738 19.535,19.529 z"
                 style="fill:url(#radialGradient3429)"
                 inkscape:connector-curvature="0" />
              <radialGradient
                 id="radialGradient4117"
                 cx="297.90161"
                 cy="291.64401"
                 r="19.533701"
                 fx="292.77301"
                 fy="283.5892"
                 gradientUnits="userSpaceOnUse">
                <stop
                   offset="0"
                   style="stop-color:#FBB040"
                   id="stop4119" />
                <stop
                   offset="1"
                   style="stop-color:#ED1C24"
                   id="stop4121" />
              </radialGradient>
              <path
                 id="path438_1_"
                 connector-curvature="0"
                 d="m 317.436,291.641 c 0,10.793 -8.746,19.536 -19.534,19.536 -10.789,0 -19.535,-8.741 -19.535,-19.536 0,-10.791 8.746,-19.529 19.535,-19.529 10.788,-0.001 19.534,8.738 19.534,19.529 z"
                 style="fill:url(#radialGradient3431)"
                 inkscape:connector-curvature="0" />
              <radialGradient
                 id="radialGradient4124"
                 cx="345.3504"
                 cy="291.64401"
                 r="19.5334"
                 fx="339.85291"
                 fy="283.53629"
                 gradientUnits="userSpaceOnUse">
                <stop
                   offset="0"
                   style="stop-color:#FBB040"
                   id="stop4126" />
                <stop
                   offset="1"
                   style="stop-color:#ED1C24"
                   id="stop4128" />
              </radialGradient>
              <path
                 id="path440_1_"
                 connector-curvature="0"
                 d="m 364.885,291.641 c 0,10.793 -8.741,19.536 -19.531,19.536 -10.789,0 -19.537,-8.741 -19.537,-19.536 0,-10.791 8.748,-19.529 19.537,-19.529 10.789,-0.001 19.531,8.738 19.531,19.529 z"
                 style="fill:url(#radialGradient3433)"
                 inkscape:connector-curvature="0" />
              <radialGradient
                 id="radialGradient4131"
                 cx="392.79761"
                 cy="291.64401"
                 r="19.534401"
                 fx="386.85849"
                 fy="284.93909"
                 gradientUnits="userSpaceOnUse">
                <stop
                   offset="0"
                   style="stop-color:#FBB040"
                   id="stop4133" />
                <stop
                   offset="1"
                   style="stop-color:#ED1C24"
                   id="stop4135" />
              </radialGradient>
              <path
                 id="path442_1_"
                 connector-curvature="0"
                 d="m 412.334,291.641 c 0,10.793 -8.742,19.536 -19.531,19.536 -10.792,0 -19.54,-8.741 -19.54,-19.536 0,-10.791 8.748,-19.529 19.54,-19.529 10.789,-0.001 19.531,8.738 19.531,19.529 z"
                 style="fill:url(#radialGradient3435)"
                 inkscape:connector-curvature="0" />
            </g>
          </g>
        </g>
      </g>
      <g
         transform="matrix(0.75764752,0,0,0.75764752,24.825192,118.70957)"
         inkscape:export-ydpi="333.36765"
         inkscape:export-xdpi="333.36765"
         inkscape:export-filename="/home/gulyx/Documenti/Dottorato/LearnPAd/WP9/Templates/LearnPAd_LaTeX_Template/logos/frontpage2.png"
         id="g4126">
        <path
           style="fill:#6d6e71;fill-opacity:1"
           inkscape:connector-curvature="0"
           id="path466"
           d="m 282.60038,273.72214 c 0,-0.71354 0.24634,-1.32514 0.73902,-1.83481 0.49268,-0.50966 1.09579,-0.7645 1.80931,-0.7645 0.71354,0 1.32515,0.25484 1.83481,0.7645 0.50968,0.50861 0.76557,1.12127 0.76557,1.83481 0,0.71354 -0.25483,1.3177 -0.76557,1.81038 -0.5086,0.49268 -1.12127,0.73796 -1.83481,0.73796 -0.71352,0 -1.31663,-0.24528 -1.80931,-0.73796 -0.49268,-0.49268 -0.73902,-1.09684 -0.73902,-1.81038 z m 0,5.75925 c 0,-0.71353 0.25483,-1.32407 0.76556,-1.83481 0.5086,-0.5086 1.12127,-0.76449 1.8348,-0.76449 0.71354,0 1.31665,0.25483 1.80933,0.76449 0.49268,0.50968 0.73902,1.12128 0.73902,1.83481 0,0.7146 -0.24634,1.32514 -0.73902,1.83587 -0.49268,0.51073 -1.09579,0.76556 -1.80933,0.76556 -0.71353,0 -1.32513,-0.25483 -1.8348,-0.76556 -0.50967,-0.51073 -0.76556,-1.12127 -0.76556,-1.83587 z m 0,5.76032 c 0,-0.71354 0.25483,-1.32514 0.76556,-1.83481 0.5086,-0.50966 1.12127,-0.76556 1.8348,-0.76556 0.71354,0 1.32514,0.25483 1.83588,0.76556 0.5086,0.50861 0.7645,1.12127 0.7645,1.83481 0,0.71354 -0.25484,1.32514 -0.7645,1.83481 -0.50968,0.50966 -1.12234,0.76556 -1.83588,0.76556 -0.71353,0 -1.32513,-0.25483 -1.8348,-0.76556 -0.50967,-0.50967 -0.76556,-1.12234 -0.76556,-1.83481 z m 0,5.75819 c 0,-0.71354 0.25483,-1.31558 0.76556,-1.80932 0.5086,-0.49161 1.12127,-0.73796 1.8348,-0.73796 0.71354,0 1.32514,0.24635 1.83588,0.73796 0.5086,0.49374 0.7645,1.09578 0.7645,1.80932 0,0.71354 -0.25484,1.32515 -0.7645,1.83481 -0.50968,0.50967 -1.12234,0.76557 -1.83588,0.76557 -0.71353,0 -1.32513,-0.25484 -1.8348,-0.76557 -0.50967,-0.50966 -0.76556,-1.12127 -0.76556,-1.83481 z m 0.051,5.81022 c 0,-0.71353 0.24634,-1.32514 0.73903,-1.8348 0.49267,-0.50967 1.09577,-0.76451 1.80931,-0.76451 0.71354,0 1.32514,0.25484 1.83587,0.76451 0.50861,0.5086 0.76451,1.12127 0.76451,1.8348 0,0.71354 -0.25484,1.31665 -0.76451,1.81039 -0.50967,0.49162 -1.12233,0.73796 -1.83587,0.73796 -0.71354,0 -1.31664,-0.24634 -1.80931,-0.73796 -0.49162,-0.49374 -0.73903,-1.09685 -0.73903,-1.81039 z m 0,5.75926 c 0,-0.71353 0.25484,-1.32513 0.76556,-1.83481 0.50861,-0.50861 1.12128,-0.7645 1.83481,-0.7645 0.71354,0 1.31665,0.25483 1.80933,0.7645 0.49268,0.50968 0.73902,1.12128 0.73902,1.83481 0,0.71354 -0.24634,1.3177 -0.73902,1.81038 -0.49268,0.49268 -1.09579,0.73796 -1.80933,0.73796 -0.71353,0 -1.32513,-0.24528 -1.83481,-0.73796 -0.51072,-0.49268 -0.76556,-1.09684 -0.76556,-1.81038 z m 0,5.75926 c 0,-0.71354 0.25484,-1.32408 0.76556,-1.83375 0.50861,-0.50967 1.12128,-0.76557 1.83481,-0.76557 0.71354,0 1.32514,0.25484 1.83588,0.76557 0.5086,0.50861 0.76449,1.12021 0.76449,1.83375 0,0.7146 -0.25483,1.32513 -0.76449,1.83586 -0.50968,0.50967 -1.12234,0.76557 -1.83588,0.76557 -0.71353,0 -1.32513,-0.25484 -1.83481,-0.76557 -0.51072,-0.51073 -0.76556,-1.12126 -0.76556,-1.83586 z m 6.67666,0.10193 c 0,-0.71353 0.25483,-1.31558 0.76557,-1.80932 0.50861,-0.49162 1.12127,-0.73796 1.83481,-0.73796 0.71353,0 1.31663,0.24634 1.80931,0.73796 0.49268,0.49374 0.73902,1.09579 0.73902,1.80932 0,0.71354 -0.24634,1.32514 -0.73902,1.8348 -0.49268,0.50968 -1.09578,0.76557 -1.80931,0.76557 -0.71354,0 -1.32515,-0.25483 -1.83481,-0.76557 -0.50968,-0.50966 -0.76557,-1.12126 -0.76557,-1.8348 z m 6.83062,-0.15184 c 0,-0.71354 0.24528,-1.31665 0.73796,-1.81039 0.49268,-0.49162 1.09579,-0.73796 1.80932,-0.73796 0.71354,0 1.32514,0.24634 1.83587,0.73796 0.50861,0.49374 0.7645,1.09685 0.7645,1.81039 0,0.71354 -0.25483,1.32514 -0.7645,1.83481 -0.50967,0.5086 -1.12233,0.7645 -1.83587,0.7645 -0.71353,0 -1.31664,-0.25484 -1.80932,-0.7645 -0.49268,-0.50967 -0.73796,-1.12127 -0.73796,-1.83481 z m 6.52269,0 c 0,-0.71354 0.24528,-1.32514 0.73902,-1.83587 0.49268,-0.50967 1.09579,-0.7645 1.80933,-0.7645 0.71354,0 1.32514,0.25377 1.8348,0.7645 0.50967,0.50967 0.76557,1.12233 0.76557,1.83587 0,0.71354 -0.25483,1.32514 -0.76557,1.83481 -0.5086,0.5086 -1.12126,0.7645 -1.8348,0.7645 -0.71354,0 -1.31665,-0.25484 -1.80933,-0.7645 -0.49268,-0.50967 -0.73902,-1.12127 -0.73902,-1.83481 z m 6.67773,0.10194 c 0,-0.71354 0.25483,-1.31665 0.7645,-1.80933 0.50967,-0.49268 1.12233,-0.73902 1.83587,-0.73902 0.71353,0 1.32513,0.24634 1.83481,0.73902 0.50966,0.49268 0.76556,1.09579 0.76556,1.80933 0,0.71353 -0.25484,1.32513 -0.76556,1.83586 -0.50861,0.50861 -1.12128,0.76344 -1.83481,0.76344 -0.71354,0 -1.32514,-0.25377 -1.83587,-0.76344 -0.50967,-0.51073 -0.7645,-1.12339 -0.7645,-1.83586 z" />
        <path
           style="fill:#6d6e71;fill-opacity:1"
           d="m 320.93064,285.36576 c -0.10209,-1.97688 2.37312,-3.28742 4.01948,-2.16927 1.7211,1.16891 1.33768,4.06328 -0.66298,4.66314 -1.62173,0.48624 -3.41039,-0.80122 -3.3565,-2.49387 z m 0,-0.12405 c -0.10082,-1.98607 2.43148,-3.35619 4.03426,-2.16989 1.63534,0.98047 1.50074,3.64772 -0.21473,4.4709 -1.64726,0.94902 -3.88764,-0.40245 -3.81953,-2.30101 z m 0,5.75819 c -0.10752,-2.09798 2.69346,-3.34965 4.23999,-1.98218 1.63905,1.1649 1.03812,3.98206 -0.87956,4.47472 -1.60646,0.53715 -3.41398,-0.79784 -3.36043,-2.49254 z m 0.051,5.81022 c -0.10664,-1.87361 2.14618,-3.26483 3.76703,-2.30067 1.70003,0.81056 1.86737,3.47993 0.21565,4.43377 -1.62972,1.12245 -4.06386,-0.11166 -3.98268,-2.1331 z m 0,5.75926 c -0.10243,-1.97702 2.42307,-3.35741 4.01948,-2.16928 1.66197,1.03461 1.43116,3.85433 -0.43163,4.53339 -1.62272,0.69661 -3.64645,-0.5569 -3.58785,-2.36411 z m 0,5.75926 c -0.10029,-1.98564 2.43196,-3.35483 4.03426,-2.16883 1.63575,0.98034 1.50029,3.64749 -0.21474,4.47089 -1.64773,0.94931 -3.88822,-0.40313 -3.81952,-2.30206 z m 6.62569,-23.31008 c -0.10668,-1.87294 2.14602,-3.2664 3.76676,-2.30148 1.71524,0.82376 1.85169,3.48991 0.21548,4.47092 -1.64883,1.17704 -4.0601,-0.15323 -3.98224,-2.16944 z m 0,11.44329 c -0.1017,-1.98668 2.43142,-3.35406 4.03381,-2.16928 1.62251,0.96717 1.51755,3.63673 -0.21455,4.42967 -1.62694,0.90441 -3.89205,-0.35397 -3.81926,-2.26039 z m 0.051,11.96872 c -0.11021,-2.08511 2.68283,-3.3558 4.21976,-1.98217 1.66637,1.23319 0.93989,4.20514 -1.10495,4.53459 -1.55184,0.357 -3.16321,-0.96068 -3.11481,-2.55242 z m 6.72762,-23.56492 c -0.10101,-1.9864 2.4309,-3.35765 4.03427,-2.17095 1.63452,0.98071 1.5017,3.64866 -0.21474,4.47117 -1.64676,0.94784 -3.88828,-0.40117 -3.81953,-2.30022 z m 0.0521,11.4433 c -0.10349,-1.97695 2.42213,-3.35939 4.01842,-2.16989 1.66174,1.035 1.4314,3.85415 -0.43163,4.53334 -1.62222,0.6955 -3.6467,-0.55566 -3.58679,-2.36345 z m 0.051,11.96978 c -0.11996,-1.98419 2.3959,-3.27579 3.98117,-2.1331 1.74792,1.00366 1.4298,3.86415 -0.4395,4.54089 -1.65346,0.73487 -3.60443,-0.60725 -3.54167,-2.40779 z m 6.42077,-23.41308 c -0.10309,-1.97725 2.42204,-3.36075 4.01902,-2.17095 1.6605,1.03551 1.43119,3.85416 -0.43157,4.53388 -1.62203,0.69683 -3.64523,-0.55678 -3.58745,-2.36293 z m 0.051,11.39339 c -0.11901,-1.9832 2.397,-3.27648 3.98177,-2.13263 1.74722,1.004 1.42938,3.86381 -0.43919,4.54095 -1.65517,0.73388 -3.60357,-0.60659 -3.54258,-2.40832 z m 0.051,12.01969 c -0.10739,-1.87397 2.14544,-3.26578 3.76678,-2.3022 1.7146,0.82363 1.85229,3.4907 0.21546,4.47103 -1.64841,1.17546 -4.06069,-0.15218 -3.98224,-2.16883 z"
           id="path468"
           inkscape:connector-curvature="0"
           sodipodi:nodetypes="cssccccccccccccccccccccccccccccccccccccccccccccccccccccccccc" />
        <path
           style="fill:#6d6e71;fill-opacity:1"
           inkscape:connector-curvature="0"
           id="path470"
           d="m 355.7187,290.9999 c 0,-0.71354 0.25484,-1.31558 0.76557,-1.80932 0.50861,-0.49161 1.12127,-0.73796 1.83481,-0.73796 0.71353,0 1.32513,0.24635 1.83586,0.73796 0.50861,0.49374 0.76451,1.09578 0.76451,1.80932 0,0.71354 -0.25484,1.32515 -0.76451,1.83481 -0.50966,0.50967 -1.12233,0.76557 -1.83586,0.76557 -0.71354,0 -1.32514,-0.25484 -1.83481,-0.76557 -0.51073,-0.50966 -0.76557,-1.12127 -0.76557,-1.83481 z m 0.051,5.81022 c 0,-0.71353 0.24634,-1.32514 0.73902,-1.8348 0.49268,-0.50967 1.09579,-0.76451 1.80932,-0.76451 0.71354,0 1.32514,0.25484 1.83588,0.76451 0.5086,0.5086 0.76449,1.12127 0.76449,1.8348 0,0.71354 -0.25483,1.31665 -0.76449,1.81039 -0.50968,0.49162 -1.12234,0.73796 -1.83588,0.73796 -0.71353,0 -1.31664,-0.24634 -1.80932,-0.73796 -0.49268,-0.49374 -0.73902,-1.09685 -0.73902,-1.81039 z m 0,5.75926 c 0,-0.71353 0.25484,-1.32513 0.76557,-1.83481 0.50861,-0.50861 1.12127,-0.7645 1.83481,-0.7645 0.71353,0 1.31664,0.25483 1.80931,0.7645 0.49268,0.50968 0.73902,1.12128 0.73902,1.83481 0,0.71354 -0.24634,1.3177 -0.73902,1.81038 -0.49267,0.49268 -1.09578,0.73796 -1.80931,0.73796 -0.71354,0 -1.32514,-0.24528 -1.83481,-0.73796 -0.51073,-0.49268 -0.76557,-1.09684 -0.76557,-1.81038 z m 0,5.75926 c 0,-0.71354 0.25484,-1.32408 0.76557,-1.83375 0.50861,-0.50967 1.12127,-0.76557 1.83481,-0.76557 0.71353,0 1.32513,0.25484 1.83586,0.76557 0.50861,0.50861 0.7645,1.12021 0.7645,1.83375 0,0.7146 -0.25483,1.32513 -0.7645,1.83586 -0.50966,0.50967 -1.12233,0.76557 -1.83586,0.76557 -0.71354,0 -1.32514,-0.25484 -1.83481,-0.76557 -0.51073,-0.51073 -0.76557,-1.12126 -0.76557,-1.83586 z m 6.62569,-23.31008 c 0,-0.7146 0.24634,-1.32515 0.73902,-1.83481 0.49268,-0.50967 1.09579,-0.76557 1.80933,-0.76557 0.71354,0 1.32514,0.25483 1.8348,0.76557 0.50967,0.50861 0.76557,1.12021 0.76557,1.83481 0,0.71353 -0.25483,1.32514 -0.76557,1.8348 -0.5086,0.50967 -1.12126,0.76557 -1.8348,0.76557 -0.71354,0 -1.31665,-0.25483 -1.80933,-0.76557 -0.49268,-0.50966 -0.73902,-1.12233 -0.73902,-1.8348 z m 0.051,11.8935 c 0,-0.71354 0.24634,-1.32514 0.73902,-1.83481 0.49268,-0.50967 1.09579,-0.7645 1.80933,-0.7645 0.71353,0 1.32513,0.25483 1.8348,0.7645 0.50967,0.50861 0.76557,1.12127 0.76557,1.83481 0,0.7146 -0.25484,1.31771 -0.76557,1.81039 -0.5086,0.49268 -1.12127,0.73795 -1.8348,0.73795 -0.71354,0 -1.31665,-0.24527 -1.80933,-0.73795 -0.49268,-0.49268 -0.73902,-1.09579 -0.73902,-1.81039 z m 6.72763,-12.04641 c 0,-0.71353 0.25483,-1.32513 0.76556,-1.83587 0.50861,-0.50966 1.12127,-0.76556 1.83481,-0.76556 0.71354,0 1.32514,0.25484 1.83587,0.76556 0.5086,0.50968 0.7645,1.12234 0.7645,1.83587 0,0.71354 -0.25483,1.32514 -0.7645,1.83482 -0.50967,0.5086 -1.12233,0.76449 -1.83587,0.76449 -0.71354,0 -1.32514,-0.25483 -1.83481,-0.76449 -0.51073,-0.50968 -0.76556,-1.12128 -0.76556,-1.83482 z m 0.051,11.89351 c 0,-0.71353 0.25377,-1.32408 0.7645,-1.83481 0.50861,-0.50967 1.12127,-0.76557 1.83481,-0.76557 0.71353,0 1.32513,0.25485 1.83587,0.76557 0.5086,0.50967 0.76449,1.12128 0.76449,1.83481 0,0.71459 -0.25483,1.32514 -0.76449,1.8348 -0.50967,0.50968 -1.12234,0.76557 -1.83587,0.76557 -0.71354,0 -1.32514,-0.25483 -1.83481,-0.76557 -0.50967,-0.50966 -0.7645,-1.12021 -0.7645,-1.8348 z m 6.88056,-5.65626 c 0,-0.7146 0.24527,-1.32514 0.73901,-1.83587 0.49162,-0.50967 1.09579,-0.76556 1.80932,-0.76556 0.71354,0 1.32514,0.25483 1.83481,0.76556 0.50967,0.50967 0.76451,1.12127 0.76451,1.83587 0,0.71354 -0.25378,1.31664 -0.76451,1.80826 -0.50861,0.49375 -1.12127,0.73902 -1.83481,0.73902 -0.71353,0 -1.3177,-0.24527 -1.80932,-0.73902 -0.49374,-0.49162 -0.73901,-1.09472 -0.73901,-1.80826 z m 0,5.75925 c 0,-0.71354 0.24527,-1.32514 0.73901,-1.83586 0.49162,-0.50967 1.09579,-0.76451 1.80932,-0.76451 0.71354,0 1.32514,0.25377 1.83481,0.76451 0.50967,0.50966 0.76451,1.12232 0.76451,1.83586 0,0.71354 -0.25378,1.32514 -0.76451,1.83481 -0.50861,0.5086 -1.12127,0.76451 -1.83481,0.76451 -0.71353,0 -1.3177,-0.25484 -1.80932,-0.76451 -0.49374,-0.50967 -0.73901,-1.12127 -0.73901,-1.83481 z m 0,5.75925 c 0,-0.71352 0.25483,-1.32513 0.76449,-1.83586 0.50967,-0.50967 1.12234,-0.7645 1.83587,-0.7645 0.71354,0 1.31559,0.25377 1.80933,0.7645 0.49162,0.50966 0.73796,1.12234 0.73796,1.83586 0,0.71354 -0.24634,1.32515 -0.73796,1.83481 -0.49374,0.50862 -1.09579,0.76451 -1.80933,0.76451 -0.71353,0 -1.32513,-0.25483 -1.83587,-0.76451 -0.50966,-0.50966 -0.76449,-1.12127 -0.76449,-1.83481 z m 0,5.75927 c 0,-0.71354 0.25483,-1.31665 0.76449,-1.80933 0.50967,-0.49268 1.12234,-0.73902 1.83587,-0.73902 0.71354,0 1.32514,0.24634 1.83481,0.73902 0.50967,0.49268 0.76556,1.09579 0.76556,1.80933 0,0.71353 -0.25483,1.32513 -0.76556,1.83586 -0.50861,0.50861 -1.12127,0.76344 -1.83481,0.76344 -0.71353,0 -1.32513,-0.25377 -1.83587,-0.76344 -0.50966,-0.51073 -0.76449,-1.12339 -0.76449,-1.83586 z"
           sodipodi:nodetypes="scscssscsssscscscsscssssscsscssscscsssscscscsssscscsssscscscscsscscssscsscscscscsscscscscsscscscscsssssssscs" />
        <path
           style="fill:#6d6e71;fill-opacity:1"
           inkscape:connector-curvature="0"
           id="path472"
           d="m 390.68409,284.79037 c 0,-0.71353 0.25484,-1.32407 0.76557,-1.83481 0.50861,-0.5086 1.12127,-0.76449 1.83481,-0.76449 0.71353,0 1.31663,0.25483 1.80931,0.76449 0.49268,0.50968 0.73902,1.12128 0.73902,1.83481 0,0.7146 -0.24634,1.32514 -0.73902,1.83587 -0.49268,0.51073 -1.09578,0.76556 -1.80931,0.76556 -0.71354,0 -1.32514,-0.25483 -1.83481,-0.76556 -0.50968,-0.51073 -0.76557,-1.12127 -0.76557,-1.83587 z m 0,5.76039 c 0,-0.71354 0.25484,-1.32514 0.76557,-1.83481 0.50861,-0.50967 1.12127,-0.76556 1.83481,-0.76556 0.71353,0 1.32513,0.25483 1.83586,0.76556 0.50861,0.50861 0.7645,1.12127 0.7645,1.83481 0,0.71354 -0.25483,1.32514 -0.7645,1.83481 -0.50966,0.50966 -1.12233,0.76556 -1.83586,0.76556 -0.71354,0 -1.32514,-0.25484 -1.83481,-0.76556 -0.50968,-0.50967 -0.76557,-1.12234 -0.76557,-1.83481 z m 0,5.75819 c 0,-0.71354 0.25484,-1.31558 0.76557,-1.80932 0.50861,-0.49162 1.12127,-0.73796 1.83481,-0.73796 0.71353,0 1.32513,0.24634 1.83586,0.73796 0.50861,0.49374 0.7645,1.09578 0.7645,1.80932 0,0.71354 -0.25483,1.32514 -0.7645,1.83481 -0.50966,0.50966 -1.12233,0.76557 -1.83586,0.76557 -0.71354,0 -1.32514,-0.25485 -1.83481,-0.76557 -0.50968,-0.50967 -0.76557,-1.12127 -0.76557,-1.83481 z m 0.051,6.26043 c 0,-0.71353 0.25484,-1.32513 0.76556,-1.83481 0.50861,-0.50861 1.12128,-0.7645 1.8348,-0.7645 0.71354,0 1.31665,0.25483 1.80933,0.7645 0.49268,0.50968 0.73902,1.12128 0.73902,1.83481 0,0.71354 -0.24634,1.3177 -0.73902,1.81038 -0.49268,0.49268 -1.09579,0.73796 -1.80933,0.73796 -0.71352,0 -1.32512,-0.24528 -1.8348,-0.73796 -0.51072,-0.49268 -0.76556,-1.09684 -0.76556,-1.81038 z m 0,5.75926 c 0,-0.71354 0.25484,-1.32408 0.76556,-1.83375 0.50861,-0.50967 1.12128,-0.76557 1.8348,-0.76557 0.71354,0 1.32515,0.25484 1.83588,0.76557 0.50861,0.50861 0.7645,1.12021 0.7645,1.83375 0,0.7146 -0.25483,1.32513 -0.7645,1.83586 -0.50967,0.50967 -1.12234,0.76557 -1.83588,0.76557 -0.71352,0 -1.32512,-0.25484 -1.8348,-0.76557 -0.51072,-0.51073 -0.76556,-1.12126 -0.76556,-1.83586 z m 6.62569,-23.46022 c 0,-0.7146 0.24634,-1.32515 0.73902,-1.83481 0.49268,-0.50967 1.09578,-0.76557 1.80932,-0.76557 0.71353,0 1.32514,0.25484 1.83481,0.76557 0.50967,0.50861 0.76557,1.12021 0.76557,1.83481 0,0.71353 -0.25485,1.32514 -0.76557,1.8348 -0.50861,0.50967 -1.12128,0.76557 -1.83481,0.76557 -0.71354,0 -1.31664,-0.25483 -1.80932,-0.76557 -0.49162,-0.50966 -0.73902,-1.12233 -0.73902,-1.8348 z m 0,11.59343 c 0,-0.71353 0.25483,-1.32513 0.76451,-1.83481 0.50966,-0.5086 1.12232,-0.7645 1.83586,-0.7645 0.71354,0 1.32514,0.25484 1.83481,0.7645 0.50966,0.50861 0.76556,1.12128 0.76556,1.83481 0,0.71354 -0.25483,1.31771 -0.76556,1.81038 -0.50861,0.49268 -1.12127,0.73796 -1.83481,0.73796 -0.71354,0 -1.32514,-0.24528 -1.83586,-0.73796 -0.50862,-0.49267 -0.76451,-1.09684 -0.76451,-1.81038 z m 6.77859,-11.74634 c 0,-0.71353 0.25483,-1.32513 0.76557,-1.83587 0.5086,-0.50966 1.12126,-0.76556 1.8348,-0.76556 0.71353,0 1.32515,0.25484 1.83587,0.76556 0.50861,0.50968 0.76451,1.12234 0.76451,1.83587 0,0.71354 -0.25485,1.32514 -0.76451,1.83482 -0.50967,0.5086 -1.12234,0.76449 -1.83587,0.76449 -0.71354,0 -1.32514,-0.25483 -1.8348,-0.76449 -0.51074,-0.50968 -0.76557,-1.12128 -0.76557,-1.83482 z m 0.0521,11.59344 c 0,-0.71354 0.25377,-1.32514 0.7645,-1.8348 0.50861,-0.50968 1.12127,-0.76557 1.83481,-0.76557 0.71353,0 1.31664,0.25483 1.80932,0.76557 0.49268,0.5086 0.73902,1.12126 0.73902,1.8348 0,0.71354 -0.24634,1.31771 -0.73902,1.80932 -0.49268,0.49375 -1.09579,0.73796 -1.80932,0.73796 -0.71354,0 -1.32514,-0.24421 -1.83481,-0.73796 -0.51073,-0.49055 -0.7645,-1.09578 -0.7645,-1.80932 z m 6.82956,-5.70829 c 0,-0.71353 0.25483,-1.31664 0.7645,-1.80932 0.50967,-0.49268 1.12233,-0.73902 1.83587,-0.73902 0.71353,0 1.32513,0.24634 1.83481,0.73902 0.50966,0.49268 0.7645,1.09579 0.7645,1.80932 0,0.71354 -0.25378,1.32514 -0.7645,1.83587 -0.50861,0.50861 -1.12128,0.7645 -1.83481,0.7645 -0.71354,0 -1.32514,-0.25483 -1.83587,-0.7645 -0.50967,-0.51073 -0.7645,-1.12233 -0.7645,-1.83587 z m 0.051,12.02074 c 0,-0.71352 0.25483,-1.32513 0.76449,-1.83586 0.50968,-0.50967 1.12234,-0.7645 1.83588,-0.7645 0.71353,0 1.31558,0.25377 1.80932,0.7645 0.49162,0.50966 0.73796,1.12234 0.73796,1.83586 0,0.71354 -0.24634,1.32515 -0.73796,1.83481 -0.49374,0.50862 -1.09579,0.76451 -1.80932,0.76451 -0.71354,0 -1.32514,-0.25483 -1.83588,-0.76451 -0.50966,-0.50966 -0.76449,-1.12127 -0.76449,-1.83481 z m 0,5.75927 c 0,-0.71354 0.25483,-1.31665 0.76449,-1.80933 0.50968,-0.49268 1.12234,-0.73902 1.83588,-0.73902 0.71353,0 1.32513,0.24634 1.83481,0.73902 0.50966,0.49268 0.76555,1.09579 0.76555,1.80933 0,0.71353 -0.25483,1.32513 -0.76555,1.83586 -0.50862,0.50861 -1.12128,0.76344 -1.83481,0.76344 -0.71354,0 -1.32514,-0.25377 -1.83588,-0.76344 -0.50966,-0.51073 -0.76449,-1.12339 -0.76449,-1.83586 z"
           sodipodi:nodetypes="sssssssssscssssscsscscssscsscssssscsscssscscsssscscscsscscscscsscscscscsscscscscsssssssscsscscscscsssssscscs" />
        <path
           style="fill:#6d6e71;fill-opacity:1"
           inkscape:connector-curvature="0"
           id="path474"
           d="m 425.12069,285.24171 c 0,-0.71354 0.25485,-1.32514 0.76451,-1.83481 0.50861,-0.50966 1.12127,-0.76556 1.83481,-0.76556 0.71354,0 1.32514,0.25483 1.83586,0.76556 0.50968,0.50861 0.76451,1.12127 0.76451,1.83481 0,0.71354 -0.25377,1.32514 -0.76451,1.83481 -0.50966,0.50966 -1.12232,0.76556 -1.83586,0.76556 -0.71354,0 -1.32514,-0.25483 -1.83481,-0.76556 -0.50966,-0.50967 -0.76451,-1.12234 -0.76451,-1.83481 z m 0,5.75819 c 0,-0.71354 0.25485,-1.31558 0.76451,-1.80932 0.50861,-0.49161 1.12127,-0.73796 1.83481,-0.73796 0.71354,0 1.32514,0.24635 1.83586,0.73796 0.50968,0.49374 0.76451,1.09578 0.76451,1.80932 0,0.71354 -0.25377,1.32515 -0.76451,1.83481 -0.50966,0.50967 -1.12232,0.76557 -1.83586,0.76557 -0.71354,0 -1.32514,-0.25484 -1.83481,-0.76557 -0.50966,-0.50966 -0.76451,-1.12127 -0.76451,-1.83481 z m 0.0499,5.81022 c 0,-0.71353 0.24634,-1.32514 0.74008,-1.8348 0.49162,-0.50861 1.09473,-0.76451 1.80827,-0.76451 0.71353,0 1.32513,0.25484 1.83586,0.76451 0.51074,0.50966 0.76451,1.12127 0.76451,1.8348 0,0.71354 -0.25377,1.31665 -0.76451,1.81039 -0.50966,0.49162 -1.12233,0.73796 -1.83586,0.73796 -0.71354,0 -1.31665,-0.24634 -1.80827,-0.73796 -0.49374,-0.49374 -0.74008,-1.09685 -0.74008,-1.81039 z m 0,5.75926 c 0,-0.71353 0.25483,-1.32513 0.76557,-1.83481 0.51072,-0.50967 1.12233,-0.7645 1.83586,-0.7645 0.71354,0 1.31558,0.25483 1.80826,0.7645 0.49268,0.50968 0.73903,1.12128 0.73903,1.83481 0,0.71354 -0.24635,1.3177 -0.73903,1.81038 -0.49268,0.49268 -1.09472,0.73796 -1.80826,0.73796 -0.71353,0 -1.32514,-0.24528 -1.83586,-0.73796 -0.51074,-0.49268 -0.76557,-1.09684 -0.76557,-1.81038 z m 0,5.75926 c 0,-0.71354 0.25483,-1.32408 0.76557,-1.83375 0.50966,-0.50967 1.12233,-0.76557 1.83586,-0.76557 0.71354,0 1.32515,0.25484 1.83481,0.76557 0.50861,0.50861 0.76451,1.12021 0.76451,1.83375 0,0.7146 -0.25484,1.32513 -0.76451,1.83586 -0.50966,0.51073 -1.12127,0.76557 -1.83481,0.76557 -0.71353,0 -1.32514,-0.25484 -1.83586,-0.76557 -0.51074,-0.51073 -0.76557,-1.12126 -0.76557,-1.83586 z m 6.62569,-13.91626 c 0,-0.71353 0.25484,-1.31558 0.76557,-1.80932 0.50967,-0.49162 1.12127,-0.73796 1.8348,-0.73796 0.7146,0 1.31559,0.24634 1.80933,0.73796 0.49162,0.49374 0.73902,1.09579 0.73902,1.80932 0,0.7146 -0.2474,1.32514 -0.73902,1.83482 -0.49374,0.50966 -1.09473,0.76555 -1.80933,0.76555 -0.71353,0 -1.32407,-0.25483 -1.8348,-0.76555 -0.51073,-0.50968 -0.76557,-1.12022 -0.76557,-1.83482 z m 6.83063,5.65732 c 0,-0.71353 0.25376,-1.32514 0.7645,-1.8348 0.50966,-0.50967 1.12233,-0.76557 1.83586,-0.76557 0.71354,0 1.31559,0.25483 1.80827,0.76557 0.49268,0.5086 0.73902,1.12127 0.73902,1.8348 0,0.71354 -0.24634,1.31771 -0.73902,1.80933 -0.49268,0.49374 -1.09473,0.73796 -1.80827,0.73796 -0.71353,0 -1.32513,-0.24422 -1.83586,-0.73796 -0.51074,-0.49056 -0.7645,-1.09579 -0.7645,-1.80933 z m 7.8903,-14.77808 c 0,-0.71354 0.25484,-1.31665 0.7645,-1.80933 0.50967,-0.49268 1.12234,-0.73902 1.83587,-0.73902 0.71354,0 1.32514,0.24634 1.83588,0.73902 0.5086,0.49268 0.76343,1.09579 0.76343,1.80933 0,0.71353 -0.25377,1.32513 -0.76343,1.83587 -0.50968,0.5086 -1.12234,0.76449 -1.83588,0.76449 -0.71353,0 -1.32513,-0.25483 -1.83587,-0.76449 -0.5086,-0.51074 -0.7645,-1.12234 -0.7645,-1.83587 z m 0.051,5.81128 c 0,-0.7146 0.24634,-1.32514 0.73902,-1.83587 0.49268,-0.51073 1.09579,-0.76556 1.80933,-0.76556 0.71354,0 1.32514,0.25483 1.83587,0.76556 0.5086,0.50967 0.76343,1.12127 0.76343,1.83587 0,0.71354 -0.25376,1.31664 -0.76343,1.80826 -0.50967,0.49375 -1.12233,0.73902 -1.83587,0.73902 -0.71354,0 -1.31665,-0.24527 -1.80933,-0.73902 -0.49161,-0.49162 -0.73902,-1.09472 -0.73902,-1.80826 z m 0,5.75925 c 0,-0.71354 0.24634,-1.32514 0.73902,-1.83586 0.49268,-0.51074 1.09579,-0.76451 1.80933,-0.76451 0.71354,0 1.32514,0.25377 1.83587,0.76451 0.5086,0.50966 0.76343,1.12232 0.76343,1.83586 0,0.71354 -0.25376,1.32514 -0.76343,1.83481 -0.50967,0.5086 -1.12233,0.76451 -1.83587,0.76451 -0.71354,0 -1.31665,-0.25484 -1.80933,-0.76451 -0.49268,-0.50967 -0.73902,-1.12127 -0.73902,-1.83481 z m 0,5.75925 c 0,-0.71352 0.25484,-1.32513 0.76557,-1.83586 0.50861,-0.50967 1.12127,-0.7645 1.83481,-0.7645 0.71354,0 1.31558,0.25377 1.80933,0.7645 0.49161,0.50966 0.73794,1.12234 0.73794,1.83586 0,0.71354 -0.24633,1.32515 -0.73794,1.83481 -0.49375,0.50862 -1.09579,0.76451 -1.80933,0.76451 -0.71354,0 -1.32514,-0.25483 -1.83481,-0.76451 -0.51073,-0.50966 -0.76557,-1.12127 -0.76557,-1.83481 z m 0,5.75927 c 0,-0.71354 0.25484,-1.31665 0.76557,-1.80933 0.50861,-0.49268 1.12127,-0.73902 1.83481,-0.73902 0.71354,0 1.32514,0.24634 1.8348,0.73902 0.50967,0.49268 0.76557,1.09579 0.76557,1.80933 0,0.71353 -0.25483,1.32513 -0.76557,1.83586 -0.5086,0.50861 -1.12126,0.76344 -1.8348,0.76344 -0.71354,0 -1.32514,-0.25377 -1.83481,-0.76344 -0.51073,-0.51073 -0.76557,-1.12339 -0.76557,-1.83586 z"
           sodipodi:nodetypes="scscscscsscscscscsscssscssssssssssssscscsssssscscscscsscscscscsssscscscsssscscscsssscscsssscscscscsscsssssss" />
        <g
           style="fill:#6d6e71;fill-opacity:1"
           id="g3250"
           transform="matrix(0.98072894,0,0,0.98072894,174.80124,-282.39452)">
          <path
             d="m 312.32431,567.0442 c 0,-0.72756 0.25009,-1.35118 0.75245,-1.87086 0.50236,-0.51968 1.11732,-0.77952 1.84488,-0.77952 0.72864,0 1.35118,0.25984 1.87086,0.77952 0.51968,0.5186 0.78061,1.1433 0.78061,1.87086 0,0.72756 -0.25984,1.3436 -0.78061,1.84596 -0.5186,0.50236 -1.14222,0.75246 -1.87086,0.75246 -0.72756,0 -1.34252,-0.2501 -1.84488,-0.75246 -0.50236,-0.50236 -0.75245,-1.1184 -0.75245,-1.84596 z m 0,5.87242 c 0,-0.72755 0.25984,-1.35009 0.77952,-1.87086 0.5186,-0.5186 1.1433,-0.77952 1.87086,-0.77952 0.72756,0 1.34252,0.25984 1.84488,0.77952 0.50236,0.51969 0.75354,1.14331 0.75354,1.87086 0,0.72864 -0.25118,1.35118 -0.75354,1.87195 -0.50236,0.52076 -1.11732,0.7806 -1.84488,0.7806 -0.72756,0 -1.35118,-0.25984 -1.87086,-0.7806 -0.51968,-0.52077 -0.77952,-1.14331 -0.77952,-1.87195 z m 0,5.87351 c 0,-0.72756 0.25984,-1.35118 0.77952,-1.87086 0.5186,-0.51968 1.1433,-0.78061 1.87086,-0.78061 0.72756,0 1.35118,0.25984 1.87194,0.78061 0.51969,0.5186 0.77953,1.1433 0.77953,1.87086 0,0.72756 -0.25876,1.35118 -0.77953,1.87086 -0.51968,0.51968 -1.14438,0.78061 -1.87194,0.78061 -0.72756,0 -1.35118,-0.25984 -1.87086,-0.78061 -0.51968,-0.51968 -0.77952,-1.14439 -0.77952,-1.87086 z m 0,5.87134 c 0,-0.72756 0.25984,-1.34143 0.77952,-1.84488 0.5186,-0.50127 1.1433,-0.75246 1.87086,-0.75246 0.72756,0 1.35118,0.25119 1.87194,0.75246 0.51969,0.50345 0.77953,1.11732 0.77953,1.84488 0,0.72756 -0.25876,1.35118 -0.77953,1.87086 -0.51968,0.51968 -1.14438,0.78061 -1.87194,0.78061 -0.72756,0 -1.35118,-0.25984 -1.87086,-0.78061 -0.51968,-0.51968 -0.77952,-1.1433 -0.77952,-1.87086 z m 0.0498,5.92439 c 0,-0.72756 0.25118,-1.35118 0.75462,-1.87086 0.50128,-0.5186 1.11624,-0.77953 1.8438,-0.77953 0.72755,0 1.35117,0.25985 1.87194,0.77953 0.52076,0.51968 0.77952,1.1433 0.77952,1.87086 0,0.72756 -0.25876,1.34252 -0.77952,1.84596 -0.51968,0.50128 -1.14439,0.75246 -1.87194,0.75246 -0.72756,0 -1.34252,-0.25118 -1.8438,-0.75246 -0.50236,-0.50344 -0.75462,-1.1184 -0.75462,-1.84596 z m 0,5.87242 c 0,-0.72755 0.25984,-1.35117 0.78061,-1.87086 0.52076,-0.51968 1.14438,-0.77952 1.87194,-0.77952 0.72756,0 1.34143,0.25984 1.84379,0.77952 0.50236,0.51969 0.75354,1.14331 0.75354,1.87086 0,0.72756 -0.25118,1.3436 -0.75354,1.84596 -0.50236,0.50236 -1.11623,0.75246 -1.84379,0.75246 -0.72756,0 -1.35118,-0.2501 -1.87194,-0.75246 -0.52077,-0.50236 -0.78061,-1.1184 -0.78061,-1.84596 z m 0,5.87243 c 0,-0.72756 0.25984,-1.3501 0.78061,-1.86978 0.51968,-0.51969 1.14438,-0.78061 1.87194,-0.78061 0.72756,0 1.35118,0.25984 1.87086,0.78061 0.5186,0.5186 0.77953,1.14222 0.77953,1.86978 0,0.72864 -0.25985,1.35117 -0.77953,1.87194 -0.51968,0.52076 -1.1433,0.78061 -1.87086,0.78061 -0.72756,0 -1.35118,-0.25985 -1.87194,-0.78061 -0.52077,-0.52077 -0.78061,-1.1433 -0.78061,-1.87194 z m 6.75697,-35.18149 c 0,-0.72864 0.25118,-1.35118 0.75354,-1.87086 0.50236,-0.51968 1.11732,-0.78061 1.84487,-0.78061 0.72756,0 1.35118,0.25984 1.87195,0.78061 0.5186,0.5186 0.77952,1.14222 0.77952,1.87086 0,0.72756 -0.25984,1.35118 -0.77952,1.87086 -0.51969,0.51968 -1.14439,0.78061 -1.87195,0.78061 -0.72755,0 -1.34251,-0.25984 -1.84487,-0.78061 -0.50236,-0.51968 -0.75354,-1.14439 -0.75354,-1.87086 z m 0,17.66815 c 0,-0.72755 0.25984,-1.35117 0.7806,-1.87086 0.52077,-0.51968 1.14331,-0.77952 1.87086,-0.77952 0.72864,0 1.35118,0.25984 1.87086,0.77952 0.51969,0.5186 0.78061,1.14331 0.78061,1.87086 0,0.72756 -0.25984,1.3436 -0.78061,1.84596 -0.5186,0.50236 -1.14222,0.75246 -1.87086,0.75246 -0.72755,0 -1.35009,-0.2501 -1.87086,-0.75246 -0.52076,-0.50236 -0.7806,-1.1184 -0.7806,-1.84596 z m 6.91179,-17.82405 c 0,-0.72756 0.25984,-1.35118 0.77952,-1.87195 0.51968,-0.52076 1.1433,-0.78061 1.87086,-0.78061 0.72756,0 1.35118,0.25985 1.87194,0.78061 0.52077,0.52077 0.77953,1.14439 0.77953,1.87195 0,0.72755 -0.25876,1.35117 -0.77953,1.87086 -0.52076,0.51968 -1.14438,0.77952 -1.87194,0.77952 -0.72756,0 -1.35118,-0.25984 -1.87086,-0.77952 -0.51968,-0.51969 -0.77952,-1.14331 -0.77952,-1.87086 z m 0.052,17.66815 c 0,-0.72756 0.25876,-1.35118 0.77953,-1.87086 0.51968,-0.51968 1.14439,-0.78061 1.87194,-0.78061 0.72756,0 1.34143,0.25984 1.8438,0.78061 0.50236,0.5186 0.75354,1.1433 0.75354,1.87086 0,0.72756 -0.25118,1.3436 -0.75354,1.84488 -0.50237,0.50344 -1.11624,0.75245 -1.8438,0.75245 -0.72755,0 -1.35117,-0.24901 -1.87194,-0.75245 -0.51968,-0.5002 -0.77953,-1.11732 -0.77953,-1.84488 z m 6.59998,-17.66815 c 0,-0.72756 0.25985,-1.35118 0.77953,-1.87195 0.51968,-0.51968 1.14438,-0.78061 1.87194,-0.78061 0.72756,0 1.34252,0.25985 1.84488,0.78061 0.50236,0.52077 0.75354,1.14439 0.75354,1.87195 0,0.72755 -0.25118,1.34251 -0.75354,1.84379 -0.50236,0.50344 -1.11732,0.75354 -1.84488,0.75354 -0.72756,0 -1.35118,-0.2501 -1.87194,-0.75354 -0.51968,-0.50128 -0.77953,-1.11624 -0.77953,-1.84379 z m 0.052,17.61726 c 0,-0.72755 0.25118,-1.34251 0.75354,-1.84487 0.50236,-0.50236 1.11732,-0.75354 1.84488,-0.75354 0.72756,0 1.35118,0.25118 1.87194,0.75354 0.5186,0.50236 0.77844,1.11732 0.77844,1.84487 0,0.72756 -0.25875,1.35118 -0.77844,1.87195 -0.51968,0.5186 -1.14438,0.77844 -1.87194,0.77844 -0.72756,0 -1.34252,-0.25876 -1.84488,-0.77844 -0.50236,-0.52077 -0.75354,-1.14547 -0.75354,-1.87195 z m 6.80785,-11.6409 c 0,-0.72756 0.25985,-1.34252 0.77953,-1.84488 0.51968,-0.50236 1.14439,-0.75354 1.87194,-0.75354 0.72756,0 1.34252,0.25118 1.84488,0.75354 0.50236,0.50236 0.75354,1.11732 0.75354,1.84488 0,0.72755 -0.25118,1.35117 -0.75354,1.87194 -0.50236,0.5186 -1.11732,0.77844 -1.84488,0.77844 -0.72755,0 -1.35117,-0.25876 -1.87194,-0.77844 -0.51968,-0.52077 -0.77953,-1.14547 -0.77953,-1.87194 z m 0,5.87134 c 0,-0.72756 0.25985,-1.34252 0.77953,-1.84488 0.51968,-0.50236 1.14439,-0.75354 1.87194,-0.75354 0.72756,0 1.35118,0.25118 1.87195,0.75354 0.5186,0.50236 0.77844,1.11732 0.77844,1.84488 0,0.72755 -0.25876,1.35117 -0.77844,1.87194 -0.51969,0.5186 -1.14439,0.77952 -1.87195,0.77952 -0.72755,0 -1.35117,-0.25984 -1.87194,-0.77952 -0.51968,-0.52077 -0.77953,-1.14439 -0.77953,-1.87194 z"
             id="path476"
             inkscape:connector-curvature="0"
             style="fill:#6d6e71;fill-opacity:1" />
        </g>
        <g
           style="fill:#6d6e71;fill-opacity:1"
           id="g3253"
           transform="matrix(0.98072894,0,0,0.98072894,174.80124,-282.39452)">
          <path
             d="m 350.05224,572.91662 c 0,-0.72755 0.25984,-1.35009 0.78061,-1.87086 0.5186,-0.5186 1.14222,-0.77952 1.87086,-0.77952 0.72755,0 1.34143,0.25984 1.84487,0.77952 0.50128,0.51969 0.75246,1.14331 0.75246,1.87086 0,0.72864 -0.25118,1.35118 -0.75246,1.87195 -0.50344,0.51968 -1.11732,0.7806 -1.84487,0.7806 -0.72864,0 -1.35118,-0.25984 -1.87086,-0.7806 -0.52077,-0.52077 -0.78061,-1.14331 -0.78061,-1.87195 z m 0,5.87351 c 0,-0.72756 0.25984,-1.35118 0.78061,-1.87086 0.5186,-0.51968 1.14222,-0.78061 1.87086,-0.78061 0.72755,0 1.35009,0.25984 1.87086,0.78061 0.51968,0.5186 0.78061,1.1433 0.78061,1.87086 0,0.72756 -0.25985,1.35118 -0.78061,1.87086 -0.51969,0.51968 -1.14331,0.78061 -1.87086,0.78061 -0.72864,0 -1.35118,-0.25984 -1.87086,-0.78061 -0.52077,-0.51968 -0.78061,-1.14439 -0.78061,-1.87086 z m 0,5.87134 c 0,-0.72756 0.25984,-1.34143 0.78061,-1.84488 0.5186,-0.50127 1.14222,-0.75246 1.87086,-0.75246 0.72755,0 1.35009,0.25119 1.87086,0.75246 0.51968,0.50345 0.78061,1.11732 0.78061,1.84488 0,0.72756 -0.25985,1.35118 -0.78061,1.87086 -0.51969,0.51968 -1.14331,0.78061 -1.87086,0.78061 -0.72864,0 -1.35118,-0.25984 -1.87086,-0.78061 -0.52077,-0.51968 -0.78061,-1.1433 -0.78061,-1.87086 z m 0.052,5.92439 c 0,-0.72756 0.2501,-1.35118 0.75354,-1.87086 0.50128,-0.5186 1.11624,-0.77953 1.84488,-0.77953 0.72755,0 1.35009,0.25985 1.87086,0.77953 0.52076,0.51968 0.7806,1.1433 0.7806,1.87086 0,0.72756 -0.25984,1.34252 -0.7806,1.84596 -0.51969,0.50128 -1.14331,0.75246 -1.87086,0.75246 -0.72864,0 -1.3436,-0.25118 -1.84488,-0.75246 -0.50344,-0.50344 -0.75354,-1.1184 -0.75354,-1.84596 z m 0,5.87242 c 0,-0.72755 0.25984,-1.35117 0.77952,-1.87086 0.51969,-0.5186 1.14439,-0.77952 1.87195,-0.77952 0.72755,0 1.34251,0.25984 1.84487,0.77952 0.50236,0.51969 0.75354,1.14331 0.75354,1.87086 0,0.72756 -0.25118,1.3436 -0.75354,1.84596 -0.50236,0.50236 -1.11732,0.75246 -1.84487,0.75246 -0.72756,0 -1.35118,-0.2501 -1.87195,-0.75246 -0.51968,-0.50236 -0.77952,-1.1184 -0.77952,-1.84596 z m 0,5.87243 c 0,-0.72756 0.25984,-1.3501 0.77952,-1.86978 0.51969,-0.51969 1.14439,-0.78061 1.87195,-0.78061 0.72755,0 1.35117,0.25984 1.87194,0.78061 0.5186,0.5186 0.77844,1.14222 0.77844,1.86978 0,0.72864 -0.25876,1.35117 -0.77844,1.87194 -0.51968,0.51968 -1.14439,0.78061 -1.87194,0.78061 -0.72756,0 -1.35118,-0.25985 -1.87195,-0.78061 -0.51968,-0.52077 -0.77952,-1.1433 -0.77952,-1.87194 z m 6.75588,-35.18149 c 0,-0.72864 0.2501,-1.35118 0.75354,-1.87086 0.50128,-0.51968 1.11624,-0.78061 1.8438,-0.78061 0.72755,0 1.35117,0.25984 1.87194,0.78061 0.51968,0.5186 0.78061,1.14222 0.78061,1.87086 0,0.72756 -0.25984,1.35118 -0.78061,1.87086 -0.51968,0.51968 -1.14439,0.78061 -1.87194,0.78061 -0.72756,0 -1.34252,-0.25984 -1.8438,-0.78061 -0.50236,-0.51968 -0.75354,-1.14439 -0.75354,-1.87086 z m 0.052,23.54058 c 0,-0.72756 0.25118,-1.35118 0.75354,-1.87086 0.50236,-0.51969 1.11732,-0.77953 1.84488,-0.77953 0.72755,0 1.35117,0.25984 1.87086,0.77953 0.51968,0.51968 0.77952,1.1433 0.77952,1.87086 0,0.72864 -0.25984,1.3436 -0.77952,1.84596 -0.51969,0.50236 -1.14331,0.75245 -1.87086,0.75245 -0.72756,0 -1.34252,-0.25009 -1.84488,-0.75245 -0.50236,-0.50236 -0.75354,-1.11732 -0.75354,-1.84596 z m 6.85982,-23.69648 c 0,-0.72756 0.25984,-1.35118 0.78061,-1.87195 0.5186,-0.51968 1.1433,-0.78061 1.87086,-0.78061 0.72756,0 1.35118,0.25985 1.87086,0.78061 0.51968,0.51969 0.78061,1.14439 0.78061,1.87195 0,0.72755 -0.25984,1.35117 -0.78061,1.87086 -0.5186,0.5186 -1.1433,0.77952 -1.87086,0.77952 -0.72756,0 -1.35118,-0.25984 -1.87086,-0.77952 -0.52077,-0.51969 -0.78061,-1.14331 -0.78061,-1.87086 z m 0.053,23.54057 c 0,-0.72755 0.25876,-1.35009 0.77845,-1.87086 0.51968,-0.51968 1.14438,-0.78061 1.87194,-0.78061 0.72756,0 1.35118,0.25985 1.87194,0.78061 0.5186,0.51969 0.77953,1.14331 0.77953,1.87086 0,0.72864 -0.25985,1.35118 -0.77953,1.87086 -0.51968,0.51969 -1.14438,0.78061 -1.87194,0.78061 -0.72756,0 -1.35118,-0.25984 -1.87194,-0.78061 -0.51969,-0.51968 -0.77845,-1.14222 -0.77845,-1.87086 z m 6.59998,-23.54057 c 0,-0.72756 0.25984,-1.35118 0.77953,-1.87195 0.51968,-0.52076 1.1433,-0.78061 1.87086,-0.78061 0.72755,0 1.34251,0.25985 1.84596,0.78061 0.50127,0.51969 0.75246,1.14439 0.75246,1.87195 0,0.72755 -0.25119,1.34251 -0.75246,1.84379 -0.50345,0.50344 -1.11841,0.75354 -1.84596,0.75354 -0.72756,0 -1.35118,-0.2501 -1.87086,-0.75354 -0.51969,-0.50128 -0.77953,-1.11624 -0.77953,-1.84379 z m 0.0509,23.54057 c 0,-0.72755 0.25876,-1.35009 0.77952,-1.87086 0.52077,-0.52076 1.14439,-0.78061 1.87195,-0.78061 0.72755,0 1.34143,0.25985 1.84379,0.78061 0.50236,0.52077 0.75354,1.14331 0.75354,1.87086 0,0.72864 -0.25118,1.3436 -0.75354,1.84488 -0.50236,0.50344 -1.11624,0.75354 -1.84379,0.75354 -0.72756,0 -1.35118,-0.2501 -1.87195,-0.75354 -0.51968,-0.50128 -0.77952,-1.11624 -0.77952,-1.84488 z m 6.80893,-17.56421 c 0,-0.72756 0.25985,-1.34252 0.77953,-1.84488 0.51968,-0.50236 1.1433,-0.75354 1.87086,-0.75354 0.72756,0 1.34251,0.25118 1.84596,0.75354 0.50128,0.50236 0.75246,1.11732 0.75246,1.84488 0,0.72755 -0.25118,1.35117 -0.75246,1.87194 -0.50345,0.5186 -1.1184,0.77844 -1.84596,0.77844 -0.72756,0 -1.35118,-0.25876 -1.87086,-0.77844 -0.51968,-0.52077 -0.77953,-1.14547 -0.77953,-1.87194 z m 0,5.87134 c 0,-0.72756 0.25985,-1.34252 0.77953,-1.84488 0.51968,-0.50236 1.1433,-0.75354 1.87086,-0.75354 0.72756,0 1.35118,0.25118 1.87194,0.75354 0.52077,0.50236 0.77953,1.11732 0.77953,1.84488 0,0.72755 -0.25876,1.35117 -0.77953,1.87194 -0.51968,0.5186 -1.14438,0.77952 -1.87194,0.77952 -0.72756,0 -1.35118,-0.25984 -1.87086,-0.77952 -0.51968,-0.52077 -0.77953,-1.14439 -0.77953,-1.87194 z m 0.0509,5.92547 c 0,-0.72864 0.2501,-1.35118 0.75354,-1.87194 0.50128,-0.51969 1.11624,-0.78061 1.84379,-0.78061 0.72756,0 1.35118,0.25984 1.87195,0.78061 0.52076,0.52076 0.77952,1.1433 0.77952,1.87194 0,0.72756 -0.25876,1.34251 -0.77952,1.84379 -0.51969,0.50345 -1.14439,0.75354 -1.87195,0.75354 -0.72755,0 -1.34251,-0.25009 -1.84379,-0.75354 -0.50236,-0.50128 -0.75354,-1.11623 -0.75354,-1.84379 z m 0,5.87242 c 0,-0.72756 0.2501,-1.35118 0.75354,-1.87194 0.50128,-0.51968 1.11624,-0.77953 1.84379,-0.77953 0.72756,0 1.35118,0.25876 1.87195,0.77953 0.52076,0.52076 0.77952,1.14438 0.77952,1.87194 0,0.72756 -0.25876,1.35118 -0.77952,1.87086 -0.52077,0.51969 -1.14439,0.77953 -1.87195,0.77953 -0.72755,0 -1.34251,-0.25984 -1.84379,-0.77953 -0.50236,-0.51968 -0.75354,-1.1433 -0.75354,-1.87086 z m 0,5.87242 c 0,-0.72755 0.25876,-1.35117 0.77952,-1.87194 0.52077,-0.52076 1.14439,-0.77952 1.87195,-0.77952 0.72755,0 1.34143,0.25876 1.84379,0.77952 0.50236,0.52077 0.75354,1.14439 0.75354,1.87194 0,0.72756 -0.25118,1.35118 -0.75354,1.87086 -0.50236,0.51969 -1.11624,0.77953 -1.84379,0.77953 -0.72756,0 -1.35118,-0.25984 -1.87195,-0.77953 -0.52076,-0.51968 -0.77952,-1.1433 -0.77952,-1.87086 z m 0,5.87243 c 0,-0.72756 0.25876,-1.34252 0.77952,-1.84488 0.52077,-0.50236 1.14439,-0.75354 1.87195,-0.75354 0.72755,0 1.35117,0.25118 1.87086,0.75354 0.51968,0.50236 0.77952,1.11732 0.77952,1.84488 0,0.72755 -0.25984,1.35117 -0.77952,1.87194 -0.5186,0.5186 -1.14331,0.77844 -1.87086,0.77844 -0.72756,0 -1.35118,-0.25876 -1.87195,-0.77844 -0.51968,-0.52077 -0.77952,-1.14547 -0.77952,-1.87194 z"
             id="path478"
             inkscape:connector-curvature="0"
             style="fill:#6d6e71;fill-opacity:1" />
        </g>
        <path
           style="fill:#6d6e71;fill-opacity:1"
           inkscape:connector-curvature="0"
           id="path480"
           d="m 557.70779,285.24171 c 0,-0.71354 0.25483,-1.32514 0.76557,-1.83481 0.50966,-0.50966 1.12127,-0.76556 1.83586,-0.76556 0.71354,0 1.32408,0.25483 1.83481,0.76556 0.50861,0.50861 0.76451,1.12127 0.76451,1.83481 0,0.71354 -0.25484,1.32514 -0.76451,1.83481 -0.50966,0.50966 -1.12127,0.76556 -1.83481,0.76556 -0.71459,0 -1.32514,-0.25483 -1.83586,-0.76556 -0.51074,-0.50967 -0.76557,-1.12234 -0.76557,-1.83481 z m 0,5.75819 c 0,-0.71354 0.25483,-1.31558 0.76557,-1.80932 0.50966,-0.49161 1.12127,-0.73796 1.83586,-0.73796 0.71354,0 1.32408,0.24635 1.83481,0.73796 0.50861,0.49374 0.76451,1.09578 0.76451,1.80932 0,0.71354 -0.25484,1.32515 -0.76451,1.83481 -0.50966,0.50967 -1.12127,0.76557 -1.83481,0.76557 -0.71459,0 -1.32514,-0.25484 -1.83586,-0.76557 -0.51074,-0.50966 -0.76557,-1.12127 -0.76557,-1.83481 z m 0.052,5.81022 c 0,-0.71353 0.24528,-1.32514 0.73796,-1.8348 0.49268,-0.50967 1.09579,-0.76451 1.81039,-0.76451 0.71353,0 1.32407,0.25484 1.8348,0.76451 0.50861,0.5086 0.7645,1.12127 0.7645,1.8348 0,0.71354 -0.25483,1.31665 -0.7645,1.81039 -0.50967,0.49162 -1.12127,0.73796 -1.8348,0.73796 -0.7146,0 -1.31771,-0.24634 -1.81039,-0.73796 -0.49268,-0.49374 -0.73796,-1.09685 -0.73796,-1.81039 z m 0,5.75926 c 0,-0.71353 0.25483,-1.32513 0.76451,-1.83481 0.50966,-0.50967 1.12127,-0.7645 1.83481,-0.7645 0.71352,0 1.31663,0.25483 1.81037,0.7645 0.49162,0.50861 0.73796,1.12128 0.73796,1.83481 0,0.71354 -0.24634,1.3177 -0.73796,1.81038 -0.49374,0.49268 -1.09685,0.73796 -1.81037,0.73796 -0.71354,0 -1.32515,-0.24528 -1.83481,-0.73796 -0.50968,-0.49268 -0.76451,-1.09684 -0.76451,-1.81038 z m 0,5.75926 c 0,-0.71354 0.25483,-1.32408 0.76451,-1.83375 0.5086,-0.50967 1.12127,-0.76557 1.83481,-0.76557 0.71352,0 1.32513,0.25484 1.83586,0.76557 0.50967,0.50861 0.7645,1.12021 0.7645,1.83375 0,0.7146 -0.25377,1.32513 -0.7645,1.83586 -0.51073,0.51073 -1.12234,0.76557 -1.83586,0.76557 -0.71354,0 -1.32515,-0.25484 -1.83481,-0.76557 -0.50968,-0.51073 -0.76451,-1.12126 -0.76451,-1.83586 z m 6.62569,-23.01007 c 0,-0.7146 0.24528,-1.32514 0.73796,-1.83481 0.49268,-0.50966 1.09579,-0.76556 1.80932,-0.76556 0.71354,0 1.32515,0.25483 1.83481,0.76556 0.50967,0.50861 0.76557,1.12021 0.76557,1.83481 0,0.71354 -0.25483,1.32514 -0.76557,1.83481 -0.50861,0.50966 -1.12127,0.76556 -1.83481,0.76556 -0.71353,0 -1.31664,-0.25483 -1.80932,-0.76556 -0.49162,-0.50967 -0.73796,-1.12234 -0.73796,-1.83481 z m 0.0499,23.112 c 0,-0.71353 0.25483,-1.31558 0.76556,-1.80932 0.50967,-0.49162 1.12127,-0.73796 1.83587,-0.73796 0.71354,0 1.31558,0.24634 1.80826,0.73796 0.49269,0.49374 0.73903,1.09579 0.73903,1.80932 0,0.71354 -0.24634,1.32514 -0.73903,1.8348 -0.49268,0.50968 -1.09472,0.76557 -1.80826,0.76557 -0.7146,0 -1.32514,-0.25483 -1.83587,-0.76557 -0.51073,-0.50966 -0.76556,-1.12126 -0.76556,-1.8348 z m 6.72762,-23.26491 c 0,-0.71352 0.25483,-1.32513 0.76557,-1.83586 0.51073,-0.51073 1.12233,-0.76557 1.83586,-0.76557 0.71354,0 1.32514,0.25484 1.83481,0.76557 0.50968,0.51073 0.76451,1.12234 0.76451,1.83586 0,0.71354 -0.25483,1.32515 -0.76451,1.83482 -0.50967,0.50967 -1.12127,0.7645 -1.83481,0.7645 -0.71353,0 -1.32513,-0.25483 -1.83586,-0.7645 -0.51074,-0.50967 -0.76557,-1.12128 -0.76557,-1.83482 z m 0.103,23.11307 c 0,-0.71354 0.24528,-1.31665 0.73902,-1.81039 0.49162,-0.49162 1.09472,-0.73796 1.80826,-0.73796 0.71353,0 1.32514,0.24634 1.83587,0.73796 0.50966,0.49374 0.76557,1.09685 0.76557,1.81039 0,0.71354 -0.25485,1.32514 -0.76557,1.83481 -0.51073,0.50966 -1.12234,0.7645 -1.83587,0.7645 -0.71354,0 -1.31664,-0.25484 -1.80826,-0.7645 -0.49374,-0.50967 -0.73902,-1.12127 -0.73902,-1.83481 z m 5.76769,-17.17583 c 0,-0.7146 0.24422,-1.32514 0.73796,-1.83587 0.49162,-0.50967 1.09579,-0.76556 1.80933,-0.76556 0.71354,0 1.32514,0.25483 1.83481,0.76556 0.50966,0.50967 0.76556,1.12127 0.76556,1.83587 0,0.71354 -0.25483,1.31664 -0.76556,1.80826 -0.50861,0.49375 -1.12127,0.73902 -1.83481,0.73902 -0.71354,0 -1.31771,-0.24527 -1.80933,-0.73902 -0.49268,-0.49162 -0.73796,-1.09472 -0.73796,-1.80826 z m 0,5.75925 c 0,-0.71354 0.24422,-1.32514 0.73796,-1.83586 0.49162,-0.50967 1.09579,-0.76451 1.80933,-0.76451 0.71354,0 1.32514,0.25377 1.83481,0.76451 0.50966,0.50966 0.76556,1.12232 0.76556,1.83586 0,0.71354 -0.25483,1.32514 -0.76556,1.83481 -0.50861,0.5086 -1.12127,0.76451 -1.83481,0.76451 -0.71354,0 -1.31771,-0.25484 -1.80933,-0.76451 -0.49268,-0.50967 -0.73796,-1.12127 -0.73796,-1.83481 z m 0,5.75925 c 0,-0.71352 0.25378,-1.32513 0.76345,-1.83586 0.50967,-0.50967 1.12233,-0.7645 1.83587,-0.7645 0.71354,0 1.31665,0.25377 1.80932,0.7645 0.49268,0.51073 0.73902,1.12234 0.73902,1.83586 0,0.71354 -0.24634,1.32515 -0.73902,1.83481 -0.49267,0.50968 -1.09578,0.76451 -1.80932,0.76451 -0.71354,0 -1.32514,-0.25483 -1.83587,-0.76451 -0.5086,-0.50966 -0.76345,-1.12127 -0.76345,-1.83481 z"
           sodipodi:nodetypes="scssssscsscscssscsssscscscsssscscsssscscscsssssscscscsscscscscssssssssssssscssscsscscscscsscscscscsscssssscs" />
      </g>
    </g>
  </g>
</svg>
